/* XPM */
static char *result[] = {
/* columns rows colors chars-per-pixel */
"64 64 249 2 ",
"   c #192D0A",
".  c #0C360A",
"X  c #0D3D0B",
"o  c #133E0C",
"O  c #18390C",
"+  c #332709",
"@  c #221E21",
"#  c #2A2E33",
"$  c #4B2D11",
"%  c #683B19",
"&  c #4B3528",
"*  c #0E420C",
"=  c #0E4A0B",
"-  c #13450C",
";  c #19450D",
":  c #144B0C",
">  c #1A4C0D",
",  c #16530D",
"<  c #1B540D",
"1  c #16590F",
"2  c #1C5B0E",
"3  c #0F4311",
"4  c #164A11",
"5  c #1B4C11",
"6  c #1D5311",
"7  c #1A5712",
"8  c #22540E",
"9  c #25580B",
"0  c #235C0D",
"q  c #2A5D0E",
"w  c #235312",
"e  c #2D5011",
"r  c #245C12",
"t  c #2A5C12",
"y  c #285919",
"u  c #1E640D",
"i  c #1D6411",
"p  c #24620E",
"a  c #2C640D",
"s  c #2B690D",
"d  c #32640D",
"f  c #326C0E",
"g  c #2A790F",
"h  c #36730D",
"j  c #38760D",
"k  c #3B7B0D",
"l  c #246312",
"z  c #2B6413",
"x  c #256B12",
"c  c #2C6B14",
"v  c #2B6A19",
"b  c #326514",
"n  c #336C15",
"m  c #3A6D14",
"M  c #346C19",
"N  c #3A6C19",
"B  c #2D7315",
"V  c #2B7716",
"C  c #337315",
"Z  c #3B7414",
"A  c #337A15",
"S  c #3C7B15",
"D  c #347319",
"F  c #3B7319",
"G  c #357B19",
"H  c #3C7C19",
"J  c #195F34",
"K  c #2C5924",
"L  c #296C2C",
"P  c #366A28",
"I  c #397726",
"U  c #504E15",
"Y  c #6C5A1A",
"T  c #4C6A19",
"R  c #437915",
"E  c #427C15",
"W  c #427C1A",
"Q  c #415F35",
"!  c #6E4727",
"~  c #49712D",
"^  c #467B28",
"/  c #716926",
"(  c #043555",
")  c #253949",
"_  c #093D62",
"`  c #0E5455",
"'  c #2B4B56",
"]  c #186C52",
"[  c #2A754F",
"{  c #094569",
"}  c #054B75",
"|  c #06557C",
" . c #145470",
".. c #345770",
"X. c #156C74",
"o. c #287374",
"O. c #665A53",
"+. c #5B7248",
"@. c #5B6B66",
"#. c #877E78",
"$. c #3B850D",
"%. c #2C8117",
"&. c #3C8215",
"*. c #388816",
"=. c #348219",
"-. c #3C831A",
";. c #3D8B1B",
":. c #3B9319",
">. c #3A8722",
",. c #388834",
"<. c #42880D",
"1. c #438415",
"2. c #4A8516",
"3. c #448B15",
"4. c #4C8B15",
"5. c #44831A",
"6. c #4A841A",
"7. c #448B1B",
"8. c #4B8C1B",
"9. c #518B19",
"0. c #479716",
"q. c #44941C",
"w. c #4B931B",
"e. c #4C9C1B",
"r. c #55951C",
"t. c #539B1B",
"y. c #699E1C",
"u. c #4CA41B",
"i. c #58A61B",
"p. c #58B417",
"a. c #478927",
"s. c #538A2E",
"d. c #489823",
"f. c #559A25",
"g. c #498735",
"h. c #599736",
"j. c #6C9437",
"k. c #4BA422",
"l. c #56A822",
"z. c #5AAB2F",
"x. c #67B229",
"c. c #74C723",
"v. c #378854",
"b. c #398877",
"n. c #4F9248",
"m. c #69944F",
"M. c #77AB53",
"N. c #529169",
"B. c #7A976B",
"V. c #5CA568",
"C. c #7DAD6D",
"Z. c #9D9926",
"A. c #B1A727",
"S. c #CBAF29",
"D. c #A8AE5D",
"F. c #888D75",
"G. c #8FAF76",
"H. c #B7C37E",
"J. c #065984",
"K. c #015C8B",
"L. c #09648A",
"P. c #186586",
"I. c #026492",
"U. c #036A95",
"Y. c #076B97",
"T. c #166B95",
"R. c #07739D",
"E. c #17749C",
"W. c #2C6D8C",
"Q. c #26759B",
"!. c #387697",
"~. c #0C78A1",
"^. c #1C7AA3",
"/. c #267BA3",
"(. c #337EA3",
"). c #477C99",
"_. c #697D8D",
"`. c #2C839B",
"'. c #2B86AB",
"]. c #3986AA",
"[. c #3A8EB1",
"{. c #3E92B0",
"}. c #528993",
"|. c #668C97",
" X c #6EA793",
".X c #4788A9",
"XX c #558CAA",
"oX c #4C8EB1",
"OX c #4C93B3",
"+X c #5A95B3",
"@X c #5B9AB7",
"#X c #6A92A5",
"$X c #659CB7",
"%X c #76AAAB",
"&X c #66A2BA",
"*X c #6CA3BD",
"=X c #72A7BC",
"-X c #5FA1C0",
";X c #77ABC3",
":X c #75ADC4",
">X c #9A9787",
",X c #9B988F",
"<X c #919491",
"1X c #97B087",
"2X c #A5A48B",
"3X c #AAA596",
"4X c #B3A899",
"5X c #B2AA9C",
"6X c #A6B993",
"7X c #95ACB0",
"8X c #B5AEA1",
"9X c #BBB3A4",
"0X c #BBB7A9",
"qX c #AAB3B0",
"wX c #CCBF92",
"eX c #C5BBA6",
"rX c #C2BAAD",
"tX c #C5BEB2",
"yX c #ADC893",
"uX c #B7C9A8",
"iX c #BFD6A6",
"pX c #CFC298",
"aX c #CAD2AD",
"sX c #CAC5B8",
"dX c #D2CBBD",
"fX c #83AFC3",
"gX c #85B6CA",
"hX c #95BBCA",
"jX c #A8BCC4",
"kX c #9BC2CD",
"lX c #B0CAD1",
"zX c #CBCEC3",
"xX c #D3CDC2",
"cX c #D6D3C6",
"vX c #DAD5CA",
"bX c #DED9CE",
"nX c #DDDAD2",
"mX c #E2DDD3",
"MX c #E0DFD9",
"NX c #DAE2CD",
"BX c #E7E3D8",
"VX c #E6E3DA",
"CX c #E9E6DD",
"ZX c #E6E6E0",
"AX c #EDEBE3",
"SX c #F1EEE6",
"DX c #F0EFE8",
"FX c #EDF0E0",
"GX c #F3F1EA",
/* pixels */
"3.t 2 W r - S <.c 5 - E t H p x B F 1.0 c 1.c r > 6 S m x C - C c 6.f 0 : - p 8 z n r b 4.6.k 2 F > l =.7 < 5 b b B f.F n p 2 r ",
"l X r t 0 t z E S m 9 Z b z > M c m C < : G 0 C f > p l z a.z I B.1XG.M.^ p < - F z H 1.H S k t D < - 0 z w w Z s < H n Z z m C ",
". ; > a m R t H n C m m n C Z 1.C l 2 - X H x t &.d t < V H G.dXFXGXGXSXaXj.Z m M r < A E n 1.Z Z 8 o . < c o v < ; C n S 9.Z D ",
". q n E R W z G t p n t W < n C l h b - < A W z 1.S R b D G.BXFXFXSXGXGXGXNXj.4.r < : q W c &.z f z o ; > w 5 r 0 m c b E C n > ",
"d R C E c 6.z D n r z n r 4 : n c k t 5 x C E c 3.x h Z F.CXCXCXAXSXDXGXGXGXiXa.z > . Z S z G 6 z z N Z d b w t 4.E D 6 r z t 8 ",
"m a w S z S E W E S D F w 6 q Z S 1.c F , S F n -.r s n.nXBXmXBXCXAXSXGXGXDXSXm.c m . < l z H Z a Z 6.1.z t b w h g n w b n Z R ",
"r 0 - x t n j l G z a 2.t > m R c 5.c W p < 0 c a.E P uXBXmXcXvXBXCXSXFXDXFXDXG.s E m ; : x -.2.r.4.1.E m F z Z 9 u E d n n 0 G ",
"n C m 2 w < 0 2 z z k F w b z H H V n H j X = a A S 1XbXvXbXdXsXxXmXZXZXFXFXFXH.B F 1.- - 2 l w.Z &.x D C F Z W : : C Z Z n h 2 ",
"< E 9.z ; o Z q n S 1.z n b M C 3.x z p 0 8 - R / Z.dXvXtX0XdXtX0XsXdXvXmXCXGXyXB n x : < s 2 n c B l S l c Z F > > 6 C z N n S ",
"h h C x X y b n f n W z 8.W l 5.&.i 6 * z k R A.S.S.pXbXdX5X4X4X8X8X0XuXtXbXCXbXs.x < w C C 6 n C 1.E 1.n 0 < z w t 9 l n F Z h ",
"1.p q : * z t b p 2 G z 5.3.2 < A 1 * > n R A.S.Z.7XnXvXxX9X3X<X#.#.>X3XtXAXAXMXh.B f 1.8.B z M z 2 3.B 1.q X : x F R 1.6.W G c ",
"j b m > > ; z z 8 b C t B S l : = 1 4 F S T A.S.S.eXxXxXxXsXrX,X>X>X3XtXmXGXGXGXm.&.1.H 3.C W t x * 2 x n k t > r z S a 1.W l r ",
"C c b m m R m Z E 1.H l < C j > 3 4 n 7.Z Z.S.S.S.wXvXtX8X<X<X<X3X0XmXAXAXAXSXGXuXC *.2 =.B H E > * . C x 1.S m q l < - 0 q 0 2 ",
"l l z Z z E 9.j n *.l r y F 8.H b w D >.y.S.A.S.wXdX9X_.P.} _ W.XX#X7XzXmXSXAXGXNXa.A c I B c f w 5 w ^ m 4.m Z Z > : : 9 : 6 u ",
"7 6 2 9 c E S 1.E C 2 P j.g.h.s.s.^ ~ P Z.A.F.pXcX<X!.K.I.Y.~.oX*X$X).#XqXMXSXAXAXm.;.z.g.P P ^ ^ ~ s.s.T U $ U T m N n C w : l ",
"< : . 9 C S l C D z S ^ a.I d.G -.a.P T A.D.sXxX#X/./.Y.~.(.[.OXfX$X).(.).7XnXSXSX1X1 >.>.F a.f.H P P T $ $ % % ! / E S C N 7 1 ",
"2 * . t n C t i c F z A B C ;.l x G a.7 j.pXxX#X/././.K.W.).oXoXfXoX].@XXX$XqXMXSXqX7 p e.4.7.w.&.5.e $ & #.9X4X! ! ~ n D m z - ",
"* - d r z -.E H 4.E r < 7 B w.4.7.N.}.o. XvX7X.X].].T.W...) _._.;X(.Q.(.@X&XhXzXGXuXv n 7.:.c q.G 6.U & ,XvXMXMX>X! / z c N Z 8 ",
"9 a a t l c 4.w.E 2.n h - v A 0.n..X].[.{.|..X].[.oX.XXX) @ ..#X*X!.) _.XX$XkXhXCXuXl a.>.%.l q.F T $ #.nXnXnXvXeX! ! W n Z k : ",
"R S b n n f 4.3.7.Z F j n D i g [ J.Y.'.'.E.E./.].OX-XOX).W.).fXhX#X@ ) |.+XkXkXcXyX8.a.q.q.3.i.H U & tXnXvXvXvX3X! / T C b f p ",
"z D C m 6.S S S 7.H 5.7.3.4.S 0 J | { L.'.'.R.R.~.[.-X:X-X(.^.oX;XhX_.).$X:XkXlXlXuXf.i.%.*.u.*.I $ O.xXvXnXvX7X_.! Y x z m C C ",
"- x c 6.G S p B -.6.w.i.=.S w.M 6 X.} { Y.R.U.R.R.'.[.[.'.R.Y.E.(.+X;X;XgXkXlXlXjXuXM.G.;.1 %.x p $ @.cXmXnXjXXX_.% U 0 D n G C ",
"> E l M 2 l 2 H 3.8.&.3.B u ;.-.I [ P.{ | I.Y.R.R.R.~.~.~.U.U.I.K.(.+X+X-X=X:XkXkXkXlXlX X, , i R $ O.vXvXjXXXXXO.% T a H b c x ",
"2.Z n F r , C 4.*.B 2 =.r.l V ;.=.g [ J.} } K.U.U.R.U.~.^.~.U.K.P.(.+X(.E.{.@X=XgX:X:X7X%XK x , h U & <X#X).+X_.& + m l p z n W ",
"C p 2 r n 0 3.p x , 2 0.i.C u -.;.G :.J ` | L.L.U.U.R.| P.!.T.^.).+X(.Q.I./.(.+XoX.X.XW.}.7.t.t 2 $ $ ) !.(.@.& + e &.: X < D h ",
": 0 - * r A p * 0 S k 4.3.B 1 -.l &.u.h l >.,.>.v.L.U.U.( @ # ) ) ..W./.Y.I.T.T.} { _ } n.0.w.1.z + $ $ # & $ +   m j z ; ; 2 l ",
"; a 2 > - : X b r.4.3.q.-.G i y D =.i.u.t.i.k.u.u.,.b.I.I._ # ) _ P.T.Y.J.| } } { } J.v.k.=.g e.x T $ + + $ + O w C m &.W q < : ",
"w 9 S m t . r H 1.C V 3.H ,.I 4 w.A i.0.i.c.f.u.:.i v.} K.I.K.Y.T.J._ _  . .{ J.L.X.,.;.:.:.L ,.g.P + + e + 8 4 C F S S Z m b o ",
"R t E S Z b x F c u C =.D N.%XN.a.;.k.%.:.l.k.x.z.| } _ _ } { _ _ ( ( ( X.o.N.n.,.L i >.g.b.W.!.}.).' N.x.C W a 7.H A c < S r N ",
"F z G l h n b 5.-.&.4.5.B o.-X:XN.>.k.d.%.:.k.z.o.K.} } _ _ _ _ _  .P.!.!..X@X#X}.}.W.o.R.Y.Y.E.^./.T.#X XV 7.S S D V 1.0 B m y ",
"t t G r B x R 5.c ;.;.=.$.,.`.{.$X XV.z.p.:.i.N.K.K.J.} } } { J.T..X&X$XQ.E.]..X].(.Q.Y.I.U.I.L..._ _ (.V.G H S , 0 H 1.3.S c W ",
"w z 5.Z S G M r i 7 &.-.e.H [ E.{.@XOXQ.o.] v.L.K.J.} K.J.K.Q.(.XX;XgX#XJ.L.Y.R.E.E.Y.L.| | P.{ @ ..!.o.a.A x i * > x B G : m m ",
"X l c 3.B l W 3 r a g. X X}.%X*X-X-X@XoX.XQ.J.} J.J._ I.T.].+X$X$XfX;X}.;.[ ] X.X.X.X.L.R.| J.) ) (.$XN.=.&.p X * : : 1 2 9 < o ",
"t 0 0 l - C H 5 6 3.v.{.'.`.@X:X:XkX:X:X;X=X].J._ J.} K./.oX-X$X@X$XOX X0.V x p.,.:.k.L X.| { #  .| X.I x S $.: 4 3 X X > p > w ",
"Z b t w > $.m w F C G ` | | L.P.'.OX:X:X:X+XoXE.K.J.J.K.Y.].$X$X$X+X@X X>.5.1 g *.>.c.u.k.,.I ] J.P.[ - x G 1.3.F ; X t t Z Z n ",
"9 R d 6.S 1.z t M G V $.,.L ` { | U.OX+X!.o.P.L. .J.K.U.R.].$X$X;X;X-X%Xg.k.c = 1 :.p.c.:.>.x.k.[  .J o F D 3.;.6.Z t W n E C Z ",
": C E 2.H 7.D 8.6.c q.0.*.A , I L ] o.n.a.f.f.k.o.L.K.U.~.].@X-X*X;X;X:XN.d.i.7 r =.p.i.i q.f.q.t.a.a n 7.m ;.B B 8.E 8.D 1.p p ",
"R E 5.8.l &.D 7.w.l a q.x x x w.=.u.d.p.x.V p.:.o.J.K.U.^.].OX-X*X;X*X:X7X:.$.x t.u.i.7.-.q.q.q.0.e.4.t.S n G C l B 6.F S w.m R ",
"1.S l H n &.c H A x &.<.x c w.d.*.d.B 0.k.d.%.V X.K.I.U.^.].OX$X&X;X=XfXkXI B r.p.u.l.-.x.u.7.q.;.A q.S r.B -.4.&.H E E 2.8.E 6.",
"C 0 z H 1.7.c < : l C 0.3.5.3.;.=.k.V *.;.=., P |.T.I.U./.].OX@X$X$X*XgXlXm.=.l.:.%.l.a.p.i.-.=.q.x -.3.1.c A &.7.W 8.4.3.6.9.r.",
"h s f n *.x l . - W D w.q.4.1.A =.l.i.u.d.d.l m.uX<X#X(.(.(..XoX@X=X7XlXVXB.k.k.%.d.k.;.*.$.V >.i.r.i.i.r.G 2 G C Z 3.l S C H E ",
"E C R b C 2 : - n 5.B q.B *.7.z 7.%.u.x G H r C.0X5X8X3X3X7X7X7XqXlXzXbXZX1X7.d.i.p.k.%.x * , :.i.i.w.l.-.7.l l m B c ; V z z S ",
"&.z z S > r X . h G G ;.t x B 5.i i V , V 7 5.m.0X5X5X5X8X9X0XtXsXxXvXnXZXG.k.x q.u.;.=.3 X l &.e.3.x q.D 5.5.k n n n d 6.z 0 b ",
"C r < x b ; ; a 0 0 B q.6.G -.C , = p $.v z t.g.0X8X5X5X8X9XrXtXsXdXxXnXMXG.=.i i g *.0.B * - H =.x c ;.B H 1.h i.W C 3.s c X q ",
"C R z m m 5 t h A z c A 3.-.l 6.t z 3.C z w.7.a.0XsXsXdXeX8X9X9XrXrXtXxXmX2X3.x = = A *.u.W n W &.q.4.8.c s H S 4.4.Z H i , > N ",
"c h S 2 F t F H 3.6.S 2 V > l S R 7.i.G W V C a.8XtXcXBXxX3X2X2X2X3X8XtXmX6X0.3.D c 5.;.t.t.4.t.l A q.B n n H H &.C 1.n r > z m ",
"< x > : n z F G H &.b K P y I a.8.a.z.a.f.5.<.d.yXtXdXmXMXG.f.s.M.D.8XrXbXyXf.u.i.i.f.a.h.a.f.s.I M I v F a.D D V 2 S z b p H F ",
"h b - - 9 H m B D 7 7 P g.I h.^ a.P h.g.h.i.0.e.1XsXdXmXBXG.*.u i.6X4XrXvX0Xk.;.0.t.4.d.n.I g.I ^ P ^ L L M c B 8.t x M w > z n ",
"S R d > > a z x W > 6 D w H a.D A Z d.D -.d.5.u.G.eXrXcXbXC.G 3.0.2X4X9XxXsXk.%.x g ;.7.l.Z -.-.H t 8.H b : 2 G S 1.D n b 9 : > ",
"x z Z t w : 6 D E R Z C F B W B q.t.7.3.&.5.;.q.1XsXrXxXmXG.t.u.M.9X4X4XdXbXh.u.A A x ;.&.u.D C f.z 8.-.E n w r c B - c w Z a - ",
"l > n t R d ; l c G - C D , v C f :.x &.0.5.;.=.F.rXsXxXnXyX*.M.sXrX3X8XdXBXC.:.t.A c x 3.&.: 4.6.c -.2 B n 0 0 : - : 4 w z E Z ",
"W 9 c b b j p c u : - l : - > &.C l i 2 G G =.t.G.tXsXcXmX6Xl 2XsX8X2XrXcXCXuX>.u , C s q.z = k n z =.t l z b o . X X > N z S S ",
"n 1.a n R Z S 1.t 5 - 4 4 b Z 3.z z : , : u 0.x.yXsXsXvXmXyXy 2XeX5X8XdXmXCXZX1X6 h 8.4.-.D > : 2 x 1.E S D b ; q w - m N c D 2 ",
"x z : n z W c n Z w 5 6 N Z S 3.B 6.7 3 * q :.M.dXtXdXbXnXaXf.G.rX0X9XdXBXCXAXZX1Xs.S *.&.6.z 4 ; x B *.n p 6.n d t o f D z C w ",
"- X 8 c b V r r D b b t c h 0 -.z W S w t 1.q.aXvXvXmXVXZXMXh.G.eXtXdXvXBXCXZXAXDXaX~ V G H 1.z Z s 2 l z n 6.H m C ; : r x W R ",
"o ; - 0 t D Z t 5.M 5 M c l : V z c h b Z &.n.cXmXVXVXZXDXDXn.v B.sXvXmXBXCXZXZXZXDXcXM.c x x t s j 2 w 2 x a B D F b t 9 z p 1.",
"a N 9 - 2 D S W n W t b l 2 n x v , z t H p B.CXCXCXAXAXAXGXB.2 K 8XbXvXvXmXBXmXMXVXAXaX>.: < F c 2.E m z l 6 n c b F m f p z p ",
"n m F w < 0 B l : n : N r t $., 6 X : C x w 5XVXCXAXAXAXAXGXuXd.C 2XdXtXdXbXmXmXnXnXMXvXI 0 m m C D Z E W m C E v r r b f S R q ",
"2 0 D t t > : > 7 3 X r l z k < 5 o t n D m.cXcXbXBXBXBXCXAXFXG.S G.rX4XrXtXdXvXcXcXxXsXK q C t C l 0 W W m 1.B M < z b F C F d ",
"q < l N 4 : > ; * X 5 b j z Z k R 9 5 Z > 1XdXsXxXmXmXBXBXCXFXdXa.~ F.>X,X3X4XeX0X5X>Xm.a - 2 q C n 2 r W l 2 l < s Z b C l 2 5.",
"R Z m M 5 a f t o o w z 4.2.6.C Z m m R t 6XsX9XtXxXvXbXmXmXmXMXh.z K P +.+.+.+.Q P N t f q - t D Z S n n 5 X 0 t 9 c t z S 0 x ",
"S z q 9.z 4.r b 3 X N E 9.S 2.E p D b R Z F.4X3X5X0XtXsXxXdXxXdXh.b m X ; > j m > , t n f S n 2 0 &.0 0 N > > j t - : 6 F 4.E W ",
"t b m 1.C 6.t N b t F z 3.C 1.9.t n C m k W +.F.F.F.>X>X>X>X>Xm.; y t o t n h q > o z n C n q < < : X z q m F E t r X - H &.4.E ",
"; z H a l S z b R E b t B l A E 9.6.N 2.Z n d T ~ ~ ^ ~ ~ ~ N > o r e q R S Z z y 8 H m C a < p ; : * w b m n S r F ; > S S 1.H "
};
