/* XPM */
static char * EA_test_xpm[] = {
"64 64 7 1",
" 	c #7F007A",
".	c #BDA062",
"+	c #FFF600",
"@	c #E1D145",
"#	c #B08A68",
"$	c #976073",
"%	c #822279",
"                                                                ",
"                                                                ",
"                                                                ",
"                                                                ",
"                                                                ",
"                                                                ",
"                                                                ",
"                                                                ",
"                                                                ",
"                                                                ",
"                                                                ",
"                                                                ",
"                                                                ",
"                                                                ",
"                                                                ",
"                                                                ",
"                        .++++++++++++++++@                      ",
"                        .++++++++++++++++@                      ",
"                        .++++++++++++++++@                      ",
"                        .+++#                                   ",
"                        .+++#                                   ",
"                        .+++#                                   ",
"                        .+++#                                   ",
"                        .+++#                                   ",
"                        .+++#                                   ",
"                        .+++#                                   ",
"                        .+++#                                   ",
"                        .++++++++++++++++$                      ",
"                        .++++++++++++++++$                      ",
"                        .++++++++++++++++$                      ",
"                        .+++#                                   ",
"                        .+++#                                   ",
"                        .+++#                                   ",
"                        .+++#                                   ",
"                        .+++#                                   ",
"                        .+++#                                   ",
"                        .+++#                                   ",
"                        .+++#                                   ",
"                        .+++#                                   ",
"                        .+++#                                   ",
"                        .+++++++++++++++++%                     ",
"                        .+++++++++++++++++%                     ",
"                        .+++++++++++++++++%                     ",
"                                                                ",
"                                                                ",
"                                                                ",
"                                                                ",
"                                                                ",
"                                                                ",
"                                                                ",
"                                                                ",
"                                                                ",
"                                                                ",
"                                                                ",
"                                                                ",
"                                                                ",
"                                                                ",
"                                                                ",
"                                                                ",
"                                                                ",
"                                                                ",
"                                                                ",
"                                                                ",
"                                                                "};
