/* XPM */
static char * NO_test_xpm[] = {
"64 64 51 1",
" 	c #FF88F6",
".	c #F64FED",
"+	c #07FF00",
"@	c #BCBBB5",
"#	c #73EB6E",
"$	c #41F93D",
"%	c #F651ED",
"&	c #B0C6AA",
"*	c #2CFC28",
"=	c #F162E8",
"-	c #24FD20",
";	c #A4D09E",
">	c #87E281",
",	c #71EC6D",
"'	c #19FE14",
")	c #EB73E2",
"!	c #89E183",
"~	c #D997D1",
"{	c #96DA90",
"]	c #82E47D",
"^	c #E384DB",
"/	c #E287DA",
"(	c #86E380",
"_	c #92DC8C",
":	c #DA94D2",
"<	c #E977E1",
"[	c #12FF0C",
"}	c #75EA70",
"|	c #FE16F5",
"1	c #A1D29A",
"2	c #D1A3C9",
"3	c #EF66E7",
"4	c #28FD25",
"5	c #64F05F",
"6	c #FC2AF3",
"7	c #AEC8A7",
"8	c #C7AFBF",
"9	c #F555EC",
"0	c #3CFA38",
"a	c #54F550",
"b	c #FA3DF1",
"c	c #B9BEB3",
"d	c #F942F0",
"e	c #50F64C",
"f	c #C4B2BD",
"g	c #FC2EF3",
"h	c #61F15D",
"i	c #30FC2C",
"j	c #CEA6C7",
"k	c #FE1CF5",
"l	c #D898D0",
"                                                                ",
"                                                                ",
"                                                                ",
"                                                                ",
"                                                                ",
"                                                                ",
"                                                                ",
"                                                                ",
"                                                                ",
"                                                                ",
"                                                                ",
"                                                                ",
"                                                                ",
"                                                                ",
"                                                                ",
"                                                                ",
"                     .+++++@            #+++                    ",
"                     .+++++$%           #+++                    ",
"                     .++++++&           #+++                    ",
"                     .++++++*=          #+++                    ",
"                     .+++-+++;          #+++                    ",
"                     .+++>,++')         #+++                    ",
"                     .+++!~+++{         #+++                    ",
"                     .+++! ]+++^        #+++                    ",
"                     .+++! /+++(        #+++                    ",
"                     .+++!  _+++:       #+++                    ",
"                     .+++!  <[++}|      #+++                    ",
"                     .+++!   1+++2      #+++                    ",
"                     .+++!   34++56     #+++                    ",
"                     .+++!    7+++8     #+++                    ",
"                     .+++!    90++ab    #+++                    ",
"                     .+++!     c+++@    #+++                    ",
"                     .+++!     de++$%   #+++                    ",
"                     .+++!      f+++&   #+++                    ",
"                     .+++!      gh++i=  #+++                    ",
"                     .+++!       j+++;  #+++                    ",
"                     .+++!       k,++') #+++                    ",
"                     .+++!        l+++{ #+++                    ",
"                     .+++!         ]+++^#+++                    ",
"                     .+++!         /+++(#+++                    ",
"                     .+++!          _+++-+++                    ",
"                     .+++!          <[++++++                    ",
"                     .+++!           1++++++                    ",
"                     .+++!           34+++++                    ",
"                     .+++!            7+++++                    ",
"                                                                ",
"                                                                ",
"                                                                ",
"                                                                ",
"                                                                ",
"                                                                ",
"                                                                ",
"                                                                ",
"                                                                ",
"                                                                ",
"                                                                ",
"                                                                ",
"                                                                ",
"                                                                ",
"                                                                ",
"                                                                ",
"                                                                ",
"                                                                ",
"                                                                "};
