/* XPM */
static char * WE_test_xpm[] = {
"64 64 149 2",
"  	c #7F007A",
". 	c #DDC64A",
"+ 	c #FFF000",
"@ 	c #FEEF08",
"# 	c #8A3D77",
"$ 	c #F5E428",
"% 	c #C8AB5B",
"& 	c #C7A95C",
"* 	c #AB7F6B",
"= 	c #C09F60",
"- 	c #B28B68",
"; 	c #996172",
"> 	c #E4CF42",
", 	c #E3CC44",
"' 	c #FCED12",
") 	c #852E78",
"! 	c #9B6471",
"~ 	c #D1B754",
"{ 	c #BE9C61",
"] 	c #FAEB19",
"^ 	c #821C79",
"/ 	c #81167A",
"( 	c #F9E91D",
"_ 	c #E7D33E",
": 	c #F5E427",
"< 	c #ECD839",
"[ 	c #DCC34B",
"} 	c #FBEB18",
"| 	c #A6786D",
"1 	c #A3736E",
"2 	c #CCB058",
"3 	c #8A3A77",
"4 	c #F4E32A",
"5 	c #D2B754",
"6 	c #C8AA5B",
"7 	c #C6A75C",
"8 	c #AA7E6B",
"9 	c #B18968",
"0 	c #975D73",
"a 	c #F0DE31",
"b 	c #A77A6D",
"c 	c #E3CE43",
"d 	c #E2CD45",
"e 	c #D1B655",
"f 	c #BC9A62",
"g 	c #D7BE50",
"h 	c #822279",
"i 	c #FBEB17",
"j 	c #FAEA1B",
"k 	c #F9E91E",
"l 	c #E7D23F",
"m 	c #EBD83A",
"n 	c #DAC34D",
"o 	c #B99664",
"p 	c #E6D140",
"q 	c #A4756E",
"r 	c #A2706F",
"s 	c #CBAF59",
"t 	c #FEEE0A",
"u 	c #893777",
"v 	c #F3E22C",
"w 	c #935274",
"x 	c #C4A55D",
"y 	c #AA7D6B",
"z 	c #B08968",
"A 	c #955773",
"B 	c #F2E02E",
"C 	c #E3CD44",
"D 	c #E1CB46",
"E 	c #FCEC14",
"F 	c #842A79",
"G 	c #D0B555",
"H 	c #BB9963",
"I 	c #D9C24D",
"J 	c #FDED10",
"K 	c #FAEA1C",
"L 	c #800D7A",
"M 	c #F8E820",
"N 	c #E6D240",
"O 	c #EBD73A",
"P 	c #D9C14E",
"Q 	c #BC9962",
"R 	c #E9D63D",
"S 	c #A4746E",
"T 	c #A16D6F",
"U 	c #883478",
"V 	c #975B73",
"W 	c #CEB356",
"X 	c #C4A55E",
"Y 	c #A97C6C",
"Z 	c #AF8669",
"` 	c #AE8569",
" .	c #E2CE45",
"..	c #E0CA47",
"+.	c #FCEC15",
"@.	c #CFB456",
"#.	c #F8E821",
"$.	c #EAD53B",
"%.	c #D8BF4F",
"&.	c #BF9D61",
"*.	c #EBD839",
"=.	c #A2716E",
"-.	c #9F6A70",
";.	c #CAAD59",
">.	c #FDEE0C",
",.	c #873178",
"'.	c #F1DF30",
").	c #C5A65D",
"!.	c #C3A45E",
"~.	c #A87C6C",
"{.	c #AE846A",
"].	c #915175",
"^.	c #F6E426",
"/.	c #B28D67",
"(.	c #E1CC45",
"_.	c #DFC948",
":.	c #832679",
"<.	c #B89365",
"[.	c #DEC749",
"}.	c #8C4276",
"|.	c #FEEF05",
"1.	c #F7E624",
"2.	c #E5D141",
"3.	c #E9D53C",
"4.	c #D6BE50",
"5.	c #C2A15F",
"6.	c #EEDB35",
"7.	c #9D6A70",
"8.	c #CAAD5A",
"9.	c #FDED0E",
"0.	c #862E78",
"a.	c #F0DD32",
"b.	c #9E6B70",
"c.	c #D4BA52",
"d.	c #A77B6C",
"e.	c #FFF003",
"f.	c #B69165",
"g.	c #EFDE33",
"h.	c #904D75",
"i.	c #F9E81F",
"j.	c #F7E625",
"k.	c #E5D041",
"l.	c #C4A65D",
"m.	c #C9AC5A",
"n.	c #D7BF4F",
"o.	c #BA9763",
"p.	c #9A6372",
"q.	c #945474",
"r.	c #E5D042",
"                                                                                                                                ",
"                                                                                                                                ",
"                                                                                                                                ",
"                                                                                                                                ",
"                                                                                                                                ",
"                                                                                                                                ",
"                                                                                                                                ",
"                                                                                                                                ",
"                                                                                                                                ",
"                                                                                                                                ",
"                                                                                                                                ",
"                                                                                                                                ",
"                                                                                                                                ",
"                                                                                                                                ",
"                                                                                                                                ",
"                                                                                                                                ",
"                                  . + + @ #                     $ + + + %                     & + + + *                         ",
"                                  = + + + -                   ; + + + + >                     , + + ' )                         ",
"                                  ! + + + ~                   { + + + + ] ^                 / ( + + _                           ",
"                                    : + + <                   [ + + } + + |                 1 + + + 2                           ",
"                                    . + + @ 3                 4 + + 5 + + 6                 7 + + + 8                           ",
"                                    = + + + 9               0 + + a b + + c                 d + + ' )                           ",
"                                    ! + + + e               f + + g h i + j ^             / k + + l                             ",
"                                      : + + m               n + + o   p + + q             r + + + s                             ",
"                                      . + + t u             v + + w   s + + &             x + + + y                             ",
"                                      = + + + z           A + + B     8 + + C             D + + E F                             ",
"                                      ! + + + G           H + + I     ) J + K /         L M + + N                               ",
"                                        : + + O           P + + Q       R + + S         T + + + s                               ",
"                                        . + + t U         B + + V       W + + 7         X + + + Y                               ",
"                                        = + + + Z       w + + 4         ` + +  .        ..+ + +.F                               ",
"                                        ! + + + @.      o + + [         U t + ( /     L #.+ + p                                 ",
"                                          : + + $.      %.+ + &.          *.+ + =.    -.+ + + ;.                                ",
"                                          . + + >.,.    '.+ + !           ~ + + ).    !.+ + + ~.                                ",
"                                          = + + + {.  ].+ + ^.            /.+ + (.    _.+ + +.:.                                ",
"                                          ! + + + W   <.+ + [.            }.|.+ k /   1.+ + 2.                                  ",
"                                            : + + 3.  4.+ + 5.              6.+ + r 7.+ + + 8.                                  ",
"                                            . + + 9.0.a.+ + b.              c.+ + x 5.+ + + d.                                  ",
"                                            = + + + o e.+ #.L               f.+ + D [.+ + i :.                                  ",
"                                            ! + + + g.+ + ..                h.+ + i.j.+ + k.                                    ",
"                                              : + + + + + l.                  a + + + + + m.                                    ",
"                                              . + + + + + r                   n.+ + + + + b                                     ",
"                                              = + + + + ( /                   o.+ + + + } h                                     ",
"                                              p.+ + + + ,                     q.+ + + + r.                                      ",
"                                                                                                                                ",
"                                                                                                                                ",
"                                                                                                                                ",
"                                                                                                                                ",
"                                                                                                                                ",
"                                                                                                                                ",
"                                                                                                                                ",
"                                                                                                                                ",
"                                                                                                                                ",
"                                                                                                                                ",
"                                                                                                                                ",
"                                                                                                                                ",
"                                                                                                                                ",
"                                                                                                                                ",
"                                                                                                                                ",
"                                                                                                                                ",
"                                                                                                                                ",
"                                                                                                                                ",
"                                                                                                                                ",
"                                                                                                                                ",
"                                                                                                                                "};
