/* XPM */
static char *d55379a2854e4d5cc6107e33f867513fUOolQ6Z5ntzH48ob[] = {
/* columns rows colors chars-per-pixel */
"64 64 87 1 ",
"  c #4F3311",
". c #523614",
"X c #563816",
"o c #5B3A15",
"O c #573B1A",
"+ c #5C3D1A",
"@ c #613E15",
"# c #603F19",
"$ c #5F401D",
"% c #644117",
"& c #6E4516",
"* c #63421C",
"= c #6A461B",
"- c #6D491E",
"; c #704614",
": c #744916",
"> c #794C16",
", c #734B1C",
"< c #7A4E1B",
"1 c #7C511D",
"2 c #5E4324",
"3 c #644521",
"4 c #684721",
"5 c #664926",
"6 c #6B4A24",
"7 c #674A28",
"8 c #6C4D29",
"9 c #724D23",
"0 c #784F20",
"q c #714F2A",
"w c #6D502E",
"e c #765125",
"r c #7C5324",
"t c #74522B",
"y c #7B562A",
"u c #7D592C",
"i c #715431",
"p c #785731",
"a c #7C5A33",
"s c #84541D",
"d c #88571D",
"f c #8A581E",
"g c #905C1E",
"h c #825623",
"j c #885720",
"k c #855925",
"l c #8B5B24",
"z c #815728",
"x c #835B2B",
"c c #8A5E2B",
"v c #905E24",
"b c #835E32",
"n c #885E30",
"m c #8E612D",
"M c #946125",
"N c #986427",
"B c #93642D",
"V c #9A662A",
"C c #97682F",
"Z c #9C692E",
"A c #856035",
"S c #8C6333",
"D c #876338",
"F c #8C663A",
"G c #8F693C",
"H c #926632",
"J c #956935",
"K c #9A6B35",
"L c #946B3A",
"P c #9A6E3B",
"I c #9E713D",
"U c #A16F36",
"Y c #A3743C",
"T c #AA773D",
"R c #AA793E",
"E c #956D40",
"W c #9C7242",
"Q c #A27643",
"! c #A57945",
"~ c #AB7C44",
"^ c #A77B48",
"/ c #AB7E4A",
"( c #B07D43",
") c #AF8046",
"_ c #AF814C",
"` c #B78243",
"' c #B58349",
/* pixels */
"WaaaGap237873txcmz+yrrm1%rfdf<>;;ss>::s=<hy+r$cmm33PASR!!YLpDWW^",
"__^WW8batGYHybb69kemMlr=Xdlfg<;>>>sss;><*o%-c66=33eYq8HI!YWwiW^_",
"/WD!~aa~SPUUSy3ryz9lMk1$.d1ff;o>s;ssdd@#==,NNryzmBxJAeJKIIH7aW_W",
"EDiaFSD~uPPPttO68=*yy11-os@ss>o;; ssdd@,=rkBcxcBUKKJKALSAwADaEEE",
"DatDDGAPqJHHe893=O.O=1r<o= 1s1o@; ss>=oo.Xo*99BKHJcxHxPPAaIDGGaG",
"EatWQELt7LJSucmCCmh*X*hh=%X&s1o@%.oo X,je<=O.X9eyBJJLSIYADIGGawa",
"Ep28pDDSSt83cUHBHZe=6,ks-o-=%oX*lds1&<dllll=*6r9zxBJHSPIAuLAFawD",
"EGFAt~(YYJ8tHHJmBmr-91h11X1s:%%,dvvdlhvMMk,9kNc0kycSut8tSSIR)'pI",
"PLLG5JIYYYx3bHCcml-9lr1keo1MM=*1lMvljvvljs-cVBVBme$$*5quAHLSww8S",
"ILHH8PPLHPStcSxxcmyhBlkr=okMl=oklljkllhhkr0VBBccmJmu5uKYHAwuqtu8",
"SwtA5SSHHbtcBBr*6zhllke-%*lZM,$1vllr9*,0=*-BBcxyymmJAyAKSuPYIJJw",
"SqcLcSSut3nUKKmycczhklkr+=1Be-*++*-h=o0hr=*lxlczkmHmmHeAw4mPPIS8",
"3tJSmHJu5eHHJKcyCCxelBlr+=em,**zxr9ho*MZme9ree$O6mmmuHmZCAuqeSt$",
"bcxxSJHc8tmHSHm6yBzekcz6+-=l9$9xke9*.yZKchhzlke*ymmxeuAHmum8eS58",
"yucxSCHByxBHcxB3cz9$ycBh9ryk946mCch++9lmlch9*ee*xSHm66=5$*=5*yAx",
"uxyumyzzzBzxHcxyr83oxVCmxhxm-y3xcBe6366lmcyztmmyy=5uu*temHxt$x6m",
"zce33696ylyHBe6eycy8kxcBkmmmeS=mxcy463+xBmecymHxemymy9ymNHCBmy6B",
"xy9**9y#9clxxz9HBmxxzmN8uxmm6H2*4y3O6r5cScexrccSemmmk9*cmZCeeczz",
"*6rk9Oh4+333rxrCmccx5ey$SmSm6ct5uSuuBmx334x9cxxcykkmx6*-eeB6-xe+",
"rcBc9 rlr**$3c*tyexy3xm2JmCxzKYxeuxHHJHetcH5yxxkmye*$+*6-=l*o6e=",
"cVZB*OhcNcl=+l9yy695yCm2xHHITYTIu95KHJyx5ycu36zHmy3$=4hl,$=-erhr",
"lvBz+=lVVh4=+696e8xmIYY3tJHR`RRLa83SxS8qxLJKx9HBmM$=lllre$-hyhkr",
"kk<=X9lVNr=***3rr44BSJJq6KuIRRYI6a5SAAtcbJYJqtccmm$*zNMrhhl1e<re",
"<e-o.<lNBk=hccccy42tcSxyqw5SJYHI3i3777y5yJYS6qrxu9+rylkh11h1-%-s",
"*hj,o<hlll<rcVBlx33ymJx5qAAAAa572aatbtH8qPJnxJKz3*+o+#-r1,=XoXX$",
"=jM<+<r1sr++xBl6+3zSASApSaSutIDapQIWWLQb8PJJBJJcyzcMh*XoX+o$oXXo",
"*1dd=&@ekv,*lk9643mJJStqH)~QaGWELLLPQEYb3bHSHJHB6yCBcjk,,<=1d=%%",
"osdd<o@llkh4+9+3e3cHJuu5A)!'G7wiL!Q/~Qpt777cnHcm**lBBl,+<h1ss1<d",
".<sdsoo1hhh0o6#632HHJS85wII!EaiaaE!!!W8AJIJJx5693#999l=offdss1=<",
"o%ss>oX<ksr-99z0xyKx8555aILLL^Wa7iDii83aLYIPHxcyr6+#,M,-s@>s>&@@",
"@oo  .o<krk*90xcme8e68uwpwwAGiiiwi^WDap7LYYPtSucxz9***#*@.ooooo@",
":@@::@o>h<c+3*xHA=8AYYIYYDaGG7wapiaaDGa7PPLL3nyxzx3Bclh<=@@o o@:",
";ss1>:s-<hr+e*xmS*=ISSYR!WLpEW^WEaaaEap238882txcmu+yryks$1ffd1>;",
">>>s1,,1*+%6M6e*4$qYw8LIRWWwwE____/EEwaatGYHycm68h9BMkr-Xdffg1;>",
">;ssddo%=*<NBeyhmSxKupLJIIG7iW_W/EEW~aa~SPYKSy3yyu9lMk<%Xh1ff;@>",
": sddd%,=rkBmzmBUKKCKAJFAwDDaELEEEwiDGD~uKKIttO49==rkre-ososs>o;",
";.ds>=$o.X+*eemCCHmuJAKPApWFDLDGDDwDDFAPtLHHe6q4=O.O=9r1o=.<dso@",
"% oo X;l1<=X O9eyBKKKSIYASIGGa7aFawWQWLt7HJSuAmNCmh*o*dh*%.&s1o@",
"dds<=<sllll=*-reukmJSSPIAaLASawDEa58yDDSAy84xIJmCZe=99hr>o-=@@.@",
"lvMdddvMMk-9kBMekymAx68tSSI~~'uWPFFbt~(YYHweHCJmBce-9<h10X1s,@#>",
"jMvjjjMlk1,mNBCmme$255quALLAwt8SPJLH5LPYYYc5xJHmBc69lrrhrosvM=*1",
"lllhMkkskrrVNmmlmBmu*uLYHxty8tu8QGHL5IIJHPAtmmzxlcrhclkr-XhMv*+h",
"Mlly1*,9=*6NmmlyymmHSymJSuIYIKJ8Sqyb5SSSHxyxBmt=6zzcll<,#*lZv,*1",
"+*=h=oehr*=llxxxhCHmSSeAw4mKIKSwn8bLbHHut3SKKKmycczrllkr+=rM9-*+",
"kh9hO$BVme,ree$O6mmAumSIHcuttSt23tHSDHJu5eHHKKByCCkelmly+*1c9**h",
"ze9*.hZZMyyhlze$ummcexABSuA6em58nSxxHJSmetcHSmm3ymkellz6#6=c9+9c",
"Cmy+o9cBlxz6*ee3xBmm68-**=5*3ycxyuccBHBBycSCcxH3mz9*ycBh9rrx949c",
"Bcr336-cmMyxemmue4=yy*eummyy2x5muzyymyuzzmyxBcxyy8*OzCCBxzxB4h3x",
"ccy443+xBBrxymmxeczmy9rmCCCBmy6Buce=5=e5zlyHmy4eymy6zxABxcBB9S3m",
"3y3O9e5cHzyxemmBqnBmz9*ccZV9emxzzue$$er$9mxzzzeCBcxxxmN6ukmm6B*3",
"uSuummy624c9ccxArxxcl5*6rrB83xeO$9yzeXr-$$*4yzeCmccx4ey$mmJA6xt3",
"9ycHHJHeemS5txzzcz03$+*96*l*o9e=<mNm6.ely**$=m*eyrxy2xm2JSCxxJYc",
"a87JJJyx5umu35zKBr4#*,hh<+==eyhrmNCB$XrMNMl*$x9yy4w6uJm3xHHUYYRY",
"x83ScS6txJHKxeBmHB$4lclr9+,hhrlrlmNk$=mNNy4=+499e6xmUYY48PHR`RRJ",
"5a5SbntbbJYJeyxmcc#*kBlhhhlr1<rekz<=X,lVNr*=*$=ry45BBJJw8PuP~RYP",
"5t3577p5uJYS48yxx9+rrllhr1h<-%=r<1-OX,lNNh=yMmxcy=$txActq85SJYLP",
"2aatbtHq8PPSzCKh6++++#-r0,=oo o@*rl,o,hkll<ylCBcx=4ySJu48bAAAa57",
"yIIWWLQb8PJHSKKcrhcBk*Xoooo@oo.o=dM1*<11rh++kBm4+3umASAuSuSatPSa",
"ELLWQPWb5xSHHJHc6yBBvlh,,<=<d&@@%1ds&=orlM-=lk9433ACCStwL'~QAGWL",
"LQQ~~Qpt557bSHmm=*ccBk,+<h1ss<>sosdd>o%ljhh-$9+3t3mJJxt5b~!'F78p",
"aEW!!W8bLIJJy499**999j-okjddss@s.>ddsoo1dhh9O-$=*3SHKSq5tWW^Wpia",
"8iDiiw5pLYYPJxxur6+*,B,-<=s<s;@@o@ss1oX1hhr-99yexuJc6255aIEEL^Wa",
"wi^WFaa7JYYPtnuccy9*#*#*@XXoooo@@oo . X1krk*9rxmmt8tq8p8pwwaEiii",
"aiaabFa7PLLP3nyuzx6ccljr@@@X o@::@@:-%+,hel+3*lmA48mYYIRIDaaE7wa"
};
