/* XPM */
static char *_5f4cdbbb9db4efcbd50c64f04b0e00cZKHxOmVglYSR9GES[] = {
/* columns rows colors chars-per-pixel */
"64 64 217 2 ",
"   c #012425",
".  c #002B26",
"X  c #042528",
"o  c #012D2B",
"O  c #0A2A2D",
"+  c #01332D",
"@  c #00382E",
"#  c #022E31",
"$  c #0B2E30",
"%  c #023433",
"&  c #0A3334",
"*  c #023B34",
"=  c #093B36",
"-  c #023639",
";  c #023C3B",
":  c #0A3C3B",
">  c #12383B",
",  c #004136",
"<  c #02433C",
"1  c #09453C",
"2  c #02493E",
"3  c #033E41",
"4  c #044343",
"5  c #0A4443",
"6  c #024A43",
"7  c #0A4B44",
"8  c #014549",
"9  c #024D4A",
"0  c #0A4C4B",
"q  c #104B47",
"w  c #015246",
"e  c #0C5147",
"r  c #03544C",
"t  c #0A534C",
"y  c #025A4D",
"u  c #0B584F",
"i  c #12544B",
"p  c #044C51",
"a  c #0B4E52",
"s  c #035552",
"d  c #0B5452",
"f  c #035B53",
"g  c #0A5B54",
"h  c #0A565B",
"j  c #055C5A",
"k  c #0A5D5C",
"l  c #06565A",
"z  c #115453",
"x  c #115D54",
"c  c #125C5A",
"v  c #00634C",
"b  c #026355",
"n  c #0A6256",
"m  c #036A55",
"M  c #03645B",
"N  c #0A635C",
"B  c #026B5C",
"V  c #0B6B5D",
"C  c #146255",
"Z  c #13655C",
"A  c #126A5D",
"S  c #01725D",
"D  c #0C715F",
"F  c #0D5E61",
"G  c #046562",
"H  c #0C6463",
"J  c #036B64",
"K  c #0B6B64",
"L  c #0B6769",
"P  c #066C6A",
"I  c #0B6D6B",
"U  c #116363",
"Y  c #136C65",
"T  c #136D6B",
"R  c #186A64",
"E  c #037264",
"W  c #0B7364",
"Q  c #017965",
"!  c #0D7B66",
"~  c #05736A",
"^  c #0C736D",
"/  c #057B6C",
"(  c #0B7B6D",
")  c #137264",
"_  c #13736C",
"`  c #127B6E",
"'  c #19736D",
"]  c #0F6E70",
"[  c #106F71",
"{  c #0C7571",
"}  c #0C7C73",
"|  c #0E7C78",
" . c #067C72",
".. c #137573",
"X. c #197675",
"o. c #137B75",
"O. c #1A7975",
"+. c #157D7A",
"@. c #1B7C7B",
"#. c #217C7D",
"$. c #04826E",
"%. c #0D836D",
"&. c #008067",
"*. c #12826F",
"=. c #048473",
"-. c #0C8373",
";. c #028A74",
":. c #0C8A75",
">. c #0D8479",
",. c #068D7B",
"<. c #0C8B7B",
"1. c #058779",
"2. c #128375",
"3. c #198276",
"4. c #15837C",
"5. c #1A837D",
"6. c #138B7C",
"7. c #198A7D",
"8. c #168B76",
"9. c #0C927C",
"0. c #14917E",
"q. c #1B927F",
"w. c #21817E",
"e. c #1F7E80",
"r. c #217F81",
"t. c #0F8D81",
"y. c #168581",
"u. c #1B8582",
"i. c #148C82",
"p. c #1C8B84",
"a. c #1D8D89",
"s. c #0D9483",
"d. c #0D9A86",
"f. c #089985",
"g. c #149384",
"h. c #1B9384",
"j. c #129A85",
"k. c #169489",
"l. c #1C958A",
"z. c #159A8A",
"x. c #1C9B8B",
"c. c #1B9986",
"v. c #1F9E91",
"b. c #228483",
"n. c #2B8586",
"m. c #228A85",
"M. c #268788",
"N. c #2A8789",
"B. c #238D8A",
"V. c #2B8C8C",
"C. c #298987",
"Z. c #219285",
"A. c #24938C",
"S. c #2A948E",
"D. c #229B8C",
"F. c #29998D",
"G. c #269791",
"H. c #2B9591",
"J. c #239D93",
"K. c #2B9A94",
"L. c #2D9E99",
"P. c #339E9A",
"I. c #339594",
"U. c #31898B",
"Y. c #15A18C",
"T. c #1DA18E",
"R. c #0FA290",
"E. c #1CA492",
"W. c #13AA92",
"Q. c #1CAE9B",
"!. c #19A895",
"~. c #1CB29D",
"^. c #08A28A",
"/. c #21A08E",
"(. c #23A395",
"). c #22AA97",
"_. c #24A498",
"`. c #2BA39A",
"'. c #24AC9B",
"]. c #2BAA9D",
"[. c #2AA195",
"{. c #33A39D",
"}. c #31A99D",
"|. c #31A497",
" X c #23B29E",
".X c #27AFA1",
"XX c #2EABA1",
"oX c #34ACA3",
"OX c #3AAAA5",
"+X c #37AFA8",
"@X c #38A7A3",
"#X c #2CB3A5",
"$X c #29BCAA",
"%X c #26B8A5",
"&X c #32B2A6",
"*X c #38B1A7",
"=X c #35B5AA",
"-X c #3AB4AB",
";X c #33BCAD",
":X c #3BB9AE",
">X c #3CBCB1",
",X c #44BEB5",
"<X c #3DC3B5",
"1X c #3DCBBA",
"2X c #36C8B5",
"3X c #3AD1BC",
"4X c #2DC3AF",
"5X c #42C2B6",
"6X c #46C5BA",
"7X c #43CBBD",
"8X c #49C7BC",
"9X c #4ACDC1",
"0X c #50CFC6",
"qX c #44D5C3",
"wX c #42D9C4",
"eX c #4AD8C8",
"rX c #51DBCC",
/* pixels */
"X X O O X . + + * . . @ = @ + + * * ; 6 t r f y K ` 3.^ m J ~ ( 2.h.h.8.( ( W B J ( 3.8.-.Q B m w d g h g g C Z n n V m v v v v ",
"X X X X X + * * , + + * = @ . + * * , 6 w r y b W ` 3.` o.} ( ~ >.0.Z.6.-.( ` ^ ` o.3.2.} Q E B f d g d s r f g y b m V m v v m ",
"X     . o = = < 1 * * < 1 1 1 @ 2 6 2 2 r b M W *.2.*.-.6.a.6./ / 6.q.2./ P ~ ^ ( ` ( ( ( -./ ~ n j d r f d f y r y V ) D D m m ",
"&       + = , , , , , 2 1 i i i u f y y f B ( 3.h.7.>.( 6.h.h.2./ >.>.( J B B B E J J ~  .2.>.2.B n f j N N n f f b V ) ) A m m ",
"$ .   . + * 1 2 , 2 2 2 x C C C A V b b m Q 2.q./.D.g.<.6.c.l.g.-. ./ } / E J B B J J } 8.h.7.7.^ K K Y _ ) K V y b V ) ) A n v ",
".     . + < 2 e 2 2 2 2 v C C v W D B b b S %.h.c.D.D.x.l.x.l.i.~ E J ( o.( ~ J ^ ( >.3.p.h.7.4.2.O.3.3.3.` W V b f f V A C C n ",
". + + % * < e t y y w w y m m v ) W B b y B =.6.0.g.g.i.g.l.p.6.E J ~ 2.8.o.^ } 2.5.7.p.5.4.>.| 3.5.Z.Z.7.` W J m f f y b u t y ",
"o % = < ; < 2 w u v f y m W W m / W S m b B %.0.0.6. ./ } 6.p.4.} } 7.A.B.4.o.4.o.5.7.4.o.( } }  .8.Z.A.h.2.( W J m y y r y w 6 ",
"% + * , 1 e x C n v B m J Q Q / E W J m B Q 2.i.A.h.+.~ ^ 4.e.@.{ +.4.o.y.A.G.p.^ ~  .| 4.y.o.J >.>.4.7.q.h.7.3.( W B y w w 9 9 ",
". + + * 1 7 u C n b B B / $.$./ %.o.( / (  .6.h.A.A.a.+.o.e.b.r.o.+.4.+.y.y.p.y.e.y.y.+.+.u.+.{ 2.4.7.i.p.p.g.8.2.*.( V f f r f ",
". + + * 1 t u g N m B Q :.<.,.;.:.8.7.q.7.h.h.A.h.S.H.M.e.b.N.N.b.@.+.4.e. .y.a.G.K.G.u.e.| e.{ +.4.5.6.6.>.6.h.h.7.7.` B M b n ",
"+ + * * 1 e z g n B J $.,.d.d.d.<.6.q.c.D.D.A.D.h.A.B.B.b.n.N.V.V.u.+.@.e. .e.a.K.{.P.B.| { { ] ..+.4.4. .-.6.x.c.h.8.` ^ E n b ",
"= = @ @ ; 2 t g f B  .>.,.f.!.~.9.9.9.T.)._.v.J.l.p.y.u.M.M.N.M.I.b.| [ { P  .a.K.P.{.H.e.e.e.[ ..X.o.+.-.} i.(.T.h.:.-.*.( W m ",
"= + + . + * 6 r f K >.t.s.f.~.4XW.^.d.!..X'.'..X(.k.i.p.B.B.M.N.V.r.[ ] ]  .e.e.a.G.L.V.y.e.r.e.#.O.X.u.u.y.k.'.(.x.0.<.8.2.~ B ",
"= + . . % * 6 9 b K  .1.f.R.$X2X4X^.^.W.~.~. X$X#XE.v.J.G.a.u.M.N.u.e.| e.a.e.{ y.a.B.u.e.e.y.r.n.#.@.M.p.i.c.(.T.T.x.0.:./ Q S ",
"+ + + @ * ; 6 w N K { 1.f.W.$X3X2X~.^.W.~.~. X#X$X#X+X+XL.a.y.B.M.N.M.u.a.L.k. .y.a.a.e.e.e.e.e.U.#.@.b.p.6.g.x.Y.E.).c.=.Q B Q ",
"+ o o - 3 4 8 p U K ^ >.x..X2XwXwX4XQ.Q.%X%X#X'.#XXX=X-X+XK.B.a.H.H.H.H.H.G.A.A.4.u.u.u.@.e.n.r.r.r.e.4.t.i.k.d.v.!.T.x.6.%.E J ",
"; - - 4 0 0 p d H G Q >.(.$X7XwX7X3X2X;X%X.X#X>XXXXX+X+X@XA.a.p.C.H.I.H.B.p.p.a.4.u.u.+.{ @.@.r.b.u.p.i.y.k.z.z.k.z.z.l.0.2.( ~ ",
"- % - 4 a t s s K E / g..X1XqXwXeXqX7X1X;X&X&X:X_.L.L.XX|.G.a.p.u.B.H.H.a.y.6.u.y.u.u.{ I ..@.b.e.y.u.a.k.k.k.s.s.s.i.i.4.} E J ",
"# % - 0 d l j M ^  .i.J.&X1X7X7XrX1X4X<X9X>XXX`.A.l.A.G.K.B.C.B.u.m.V.A.B.u.u.y.y.y.+.{ I { @.e.e.e.y.y.a.i.t.t.k.t.<.2.( J m f ",
"- - 4 d k n G E E :.x.'.%X<X<X<X9X>X&X>X6X>XXXG.l.a.p.C.B.m.b.u.u.u.p.B.H.G.B.p.4.u.u.o.{ ..@.e.| | e.t.t.t.t.t.g.6.2.o.^ J f r ",
"- - 5 t l b B E Q ,.Y.!.).#X<X:X-X-X:X,X+X`.L.P.H.m.u.u.b.e.@.X.b.u.5.m.H.K.G.A.y.p.B.+.[ X.X.@.| e.e.t.e.t.y.t.6.o.( ^ _ K n f ",
"- - 4 d j B E =.,.Y.!.Y.E.=X<X:X-X*XXXL.G.a.l.H.H.u.+.@.u.@.@.@.b.u.u.u.B.G.A.A.u.a.u.@.{ ..X.X.e.e.e.t.e.e.e. .} ^ P K Y H j s ",
"- 3 0 c Y } 6.E.). XQ.Y.E.;X,X>X,XXXi.>.y.p.u.u.m.+.{ +.r.r.b.b.b.u.u.u.p.p.a.A.u.a.u...I ..X.| | e. .e. . . .~ I J M M N k f 9 ",
"- 3 z R T o.h.T.T.!.Y.d.v.=X>X*X,XH.a.p.| u.K.B.+.+.{ ..+.b.b.@.u.@.+.u.u.p.p.p.a.p.@.{ G G I ..e.e.e.{ { ^ ^ { P K M j s s f s ",
"- 3 z c H W 2.g.j.d.s.9.g.J.XXXX@XB.y.p.p.a.K.K.u.p.u.u.u.C.V.V.B.u.5.u.u.p.p.y.u.u.4.{ G G L ]  . . .| | o.} ^ P I G j s f s s ",
"3 3 q a f B J  .-.1.1.<.t.t.l.L.G.A.i.l.L.L.G.P.G.L.P.K.H.H.L.H.S.m.4.4.p.a.a.p.y.y.4.{ P G L L ] P P { +.+.{ J ^ I K j j j j j ",
"3 3 4 5 9 s M J ~ Q >.l.k. .t.J.L.XXJ.J.+X@XJ.+X@X+XOXP.L.P.K.B.V.u.@.4.u.a.a.u.+.y.4.+.I P L G P P P I o...^ L K T K n j N N b ",
"3 3 ; 4 9 r l j B J 3.K.A.-.>.v.].oXJ.J.=XXXJ.+X+X+XXX`.oX+XJ.p.A.C.u.y.u.y.y.4.+.y.y.+.e.[ P L P P P P L L P P K I L M B G K B ",
"3 3 - 4 8 d d s s M O.S.a.-.>.x.v.v.k.k..Xv..X=X=XoX].XX*X-X_.i.H.H.B.M.+.} {  .| +.+.e.e.[ ] P P ] ] P P G P ..I P J M M J W G ",
"3 - - 3 0 a a p p N X.b.u.>.i.x.k.t.s.z.k.J.=X>X>X>X:X:X:X=X_.i.B.H.H.A.4.{  .| { | | +.| [ ] ] L P P ] ] ......K K J B B J E J ",
"5 3 - 8 0 a 0 3 l U #.@.5.4.p.J.k.1.k.E.z..X5X<X8X9X8X5X>X#XJ.i.u.B.H.H.u.| o.u.{ { ..| e...] ] P L G e.@.@...^ J P J B G K ~ E ",
"3 3 8 8 p p p p l F U I ..5.u.4.6.<.g.g.g.(.#X>X>X9X0X,X+XXXXXL.A.A.A.p.5.+.5.b.....X.@.@.o.{ { L L ] @.e.[ [ [ ] I  .] P P P P ",
"8 3 p p a l l h F U L G L I I J } 6.x./._._.'.'.:X>X>X+X+XXXL.B.a.l.m.i.u.@.#.w.X....._ ..{ { { I I ] X.X.] ] ] ] ] ] P { P P P ",
"p l h F h F F F F H F F L T I G ~  .6.D.|.].(./..XL.L..X@X+XL.a.l.p.u.5.+.@.O.X.....I P J P { } ] P L [ [ P P P P P ] ] ] ] P P ",
"l F U F h l F F F H H H T ..I M M B ~ 8.[.].|.(.J.l.A.A.P.OXP.S.H.a.4.o.o..._ I O.X.I J G J P ~ { ] I I I P I { P P ] { ] ] P P ",
"F F F F j j k k H U [ ' T T k 9 r f B 2.F.|.|.A.a.k.y.y.B.K.P.I.H.m.o.^ L I T I X.X.^ I J J J J P P P G G P P P J P I I P ] P P ",
"F l l l j H H H j L T T T U k s w f K 5.F.F.m.o.e.y.y.+.+.M.V.I.m.5.X.P I ..X.@.o.....^ ~ P P J P ~ P G G J P G G P I ] ] P P F ",
"j s s s k H H j s Z R T H Z k k 9 y K O.w.3.^ J o.+.o...o.@.w.5.w.#.O.X...X.@.w.......{ { { { { | | { J G J P G P P I ^ I P G F ",
"H j s s M H M j K ' #.T j s d d w r f V K W G B o.o.+.+.@.#.@.X.w.b.n.#.@.o.@.#.....{ ..o.+.| +.y.y.+.~ P P P B J P I { { P G F ",
"j k M j s j G _ #.#.' Y n j d s r y f n b f B ` _ m.m.5.w.w.X.O.#.n.I.I.C.@.X.o...P I _ e.e.e.e.o.o.o...J G M M G P _ _ L M B G ",
"j j j j f M K ` W _ ' Y N l k k l f f f b M E O.` 7.5.` o.O.X.w.X.w.n.n.w.+.o...X.........{ P P I I _ I P G j f L K K L G G G G ",
"9 s s f f M J ^ K ( O._ N l g k Z y y f V G W ` ( 3.o.E ^ o.O.m.@.@.O.O.o.O.O.@.u.@..._ L F F l f f M H H M f s K L M G K G H K ",
"6 6 s s f M B W *.O.` _ N j r w N y y b B m B E J 2.} E ( } o.5.b.@...{ ..5.u.b.C.#.[ H F l l l 8 9 r j N k j s N M n G K K K M ",
"6 6 r y f V B W 2.^ B m N n f w f b b V B b b m m / ( / -.} ( 2.m.5...^ { 4.u.u.5.O.I F F l l p 8 8 9 d h c Z k j j M K K ^ B n ",
"0 t d l n G J E W b y y B K N f y v V D B b b m B :.6.:.6.0.>.6.A.w.o.} o.+.+.+.^ I T T U F l 3 0 8 9 p c U F c s f n L ^ K J j ",
"d d d j n n B B m f y b G ) K n m m B W ! Q S S $.c.h.0.x.Z.h.F.S.Z.m.5.+.o.o.{ ^ I U F F l 3 3 8 3 8 0 h c d r r f M K G B B M ",
"d a r r f j M m B B m B K W N m Y m m W *.%.Q Q :.c.g.:.0.g.c.|.K.K.S.A.p.4.o.} @._ F s 3 3 3 3 - - - 4 0 a 6 ; s j N H n j M B ",
"9 w s g g n n n n N N b b b B V V v m %.8.%.&.&.&.9.9.%.:.h./.}.|.V.B.H.H.3.o.O._ T H l a 4 3 - - * - ; ; 6 6 9 6 l R R N H N j ",
"w w w r d g l g r f j f f b V W D m m &.%.&.m &.&.:.:.&.6.0.h.F.@XP.G.A.A.A.p.5.K K k d 0 8 4 3 * * * , < 2 6 6 6 g Z n k n M n ",
"9 9 9 9 9 9 0 t t w r r j N V V ) m m D %.S m S S :.:.&.6.6.7.Z.G.{.K.4.4.B.B.+._ K k d 9 8 5 3 * * ; , 2 2 6 6 r g g g s j N H ",
"6 9 6 6 9 6 6 6 d t 9 r u n g f A v V A D D m S S %.%.%.2.3.8.h.l.A.l.>.>.2.8.o._ R n p 6 ; 3 3 ; < < < < 6 0 u d g l r r f N H ",
"6 6 6 4 < 3 4 4 q 0 4 6 t r r w v u v m V V B W S %./ E ! o.2.p.i.>.<.i.6.-.} o.` T n d 8 4 3 1 7 5 1 , < 6 u x x r s s r f M U ",
"6 < < ; ; - : 3 5 ; < 5 6 7 7 7 u u t n b m m m m %.W S W / } 6.1.=.1.k.i.~ J ( K N j r 8 4 5 5 5 7 6 < , 6 d Z g g f g n j N K ",
"- ; - % % % - - % % - ; < 4 6 6 e y t y y b m V S *.%.~ -.-.%.6.1.,.s.g.<./ E W n j s 9 6 3 4 ; 2 2 5 2 < 6 t x g d l A R N j N ",
"* % % % % % % & # % : : : - 1 4 2 y y y v n B D D 3.8.-.6.:.-.9.g.E.Q.g.<.:.( J B n g 0 6 ; % % * < 7 6 6 6 9 t d f N R ' K M N ",
"- % % % % $ $ o # # $ % % - = ; 2 w w w v V D m B Q -.:.;.$.9.9.Y. X).j.<.8.} B V f 6 ; - ; - * 2 < < 6 t u g t Z n Z R _ n M T ",
"< * * % # % % o $ $ & % - : : < 2 y v n V A V m B S Q Q S &.;.9.Y.!.T.:./ 2.2._ n r 6 < ; < ; * 2 < 2 6 e t t y R n N _ R M n _ ",
"< * * % % % + & % & % % + - = * 2 t g C C A n w m B Q S S S ;.9.x.Y.0.Q B J ) Y f r 6 6 6 < < ; 2 2 < < < 6 t g Z n n R _ N K ` ",
"7 < * % * = = & # o o o o + % = 2 7 t g C n y w y B ! $.$.$.9.Y.T./.8.Q m m n n r t 0 7 6 5 5 2 1 2 2 , , 2 w g k g N K K V Y X.",
"7 2 * @ * * = + $ + + + + + + + * ; , 7 q 0 0 w r b W ( / :.g.T./.x.6.Q B f f f t t 9 7 e 7 5 1 2 2 6 , < 2 w n g j n M N H I O.",
"e 2 * @ * , * + * * % % * % * * = % % : q q 0 q 9 w y b J Q 6.g.-.-.( B f y r r t t t 7 6 5 2 2 2 4 6 6 2 6 r u f f f f n B W _ ",
"e 2 @ @ * , * + @ = = 1 * * + + + X O & > > 3 5 4 6 6 r B W ( / S B m f y w w w u u i 7 1 < < 2 < 2 6 7 r u d y y y y y f j K ) ",
"u 2 , @ * * * + + * * * * @ + + X   X & > & & ; ; 4 6 f W ^ J m S B B m f r r d z z i 7 < , , < 2 2 6 t x C g y r r r r r f V K "
};
