/* XPM */
static char *_5a7c0c24d8542b19678e0b4045cf21bOegJq8hGmxmWA6bT[] = {
/* columns rows colors chars-per-pixel */
"64 64 254 2 ",
"   c #3C0000",
".  c #360000",
"X  c #440101",
"o  c #4C0203",
"O  c #4D0408",
"+  c #4A0508",
"@  c #530203",
"#  c #5B0303",
"$  c #550905",
"%  c #530509",
"&  c #5B0608",
"*  c #56090A",
"=  c #5B0B0A",
"-  c #5C0A04",
";  c #5C1010",
":  c #630304",
">  c #6C0303",
",  c #630B04",
"<  c #6C0B03",
"1  c #640609",
"2  c #6B0509",
"3  c #640B0A",
"4  c #6B0B0A",
"5  c #740403",
"6  c #7B0404",
"7  c #740B04",
"8  c #7C0C03",
"9  c #720409",
"0  c #7C050A",
"q  c #740B0B",
"w  c #7C0C0B",
"e  c #6E120B",
"r  c #691404",
"t  c #751205",
"y  c #7C1205",
"u  c #73120B",
"i  c #7B130C",
"p  c #7C1A0C",
"a  c #751B06",
"s  c #780E11",
"d  c #7D1511",
"f  c #7C1B12",
"g  c #751812",
"h  c #6A1510",
"j  c #7B220B",
"k  c #7B2316",
"l  c #830503",
"z  c #840C05",
"x  c #8B0D04",
"c  c #830609",
"v  c #830C0B",
"b  c #8B0C0B",
"n  c #890505",
"m  c #910C05",
"M  c #9B0E03",
"N  c #940E09",
"B  c #9B0C08",
"V  c #831305",
"C  c #8B1304",
"Z  c #841B05",
"A  c #8B1A06",
"S  c #84130B",
"D  c #8C130B",
"F  c #841A0C",
"G  c #8B1A0C",
"H  c #931404",
"J  c #9B1403",
"K  c #941A05",
"L  c #9A1B04",
"P  c #93140B",
"I  c #9B150B",
"U  c #941B0C",
"Y  c #9C1B0C",
"T  c #860C10",
"R  c #890D12",
"E  c #841411",
"W  c #8B1512",
"Q  c #841C13",
"!  c #8C1C13",
"~  c #8B1D19",
"^  c #931512",
"/  c #9B1611",
"(  c #941B13",
")  c #9B1C12",
"_  c #981C1B",
"`  c #A30300",
"'  c #A90A02",
"]  c #A21302",
"[  c #AB1404",
"{  c #A31B05",
"}  c #A2150B",
"|  c #A31C0C",
" . c #AB1C0B",
".. c #AC1808",
"X. c #B41504",
"o. c #BB1C03",
"O. c #B31C0C",
"+. c #BC1C0C",
"@. c #B71806",
"#. c #A41C12",
"$. c #AB1D12",
"%. c #A21610",
"&. c #B81E11",
"*. c #B30B00",
"=. c #8C230C",
"-. c #892807",
";. c #92220D",
":. c #9C220C",
">. c #962707",
",. c #9B3506",
"<. c #842213",
"1. c #8C2214",
"2. c #8C2319",
"3. c #892816",
"4. c #942314",
"5. c #9B2314",
"6. c #9B2913",
"7. c #9C241A",
"8. c #9C2B1A",
"9. c #932919",
"0. c #873119",
"q. c #953214",
"w. c #993618",
"e. c #A3230D",
"r. c #AC220C",
"t. c #A52C0E",
"y. c #A82708",
"u. c #BD2206",
"i. c #B4230C",
"p. c #BA220C",
"a. c #B42B0D",
"s. c #B72909",
"d. c #A6330B",
"f. c #BC320D",
"g. c #B4360C",
"h. c #A42313",
"j. c #AB2413",
"k. c #A42B14",
"l. c #AC2B15",
"z. c #A32419",
"x. c #A42B1A",
"c. c #AC2C1A",
"v. c #B32313",
"b. c #BB2313",
"n. c #B42B14",
"m. c #BB2C14",
"M. c #B32D1A",
"N. c #BB2B19",
"B. c #A33214",
"V. c #AD3113",
"C. c #A5331D",
"Z. c #AC321B",
"A. c #A73B17",
"S. c #B53212",
"D. c #BC3314",
"F. c #B4331B",
"G. c #BB331A",
"H. c #BC3C1C",
"J. c #B83B18",
"K. c #983121",
"L. c #A83923",
"P. c #BC3622",
"I. c #B73923",
"U. c #C40F00",
"Y. c #C31D04",
"T. c #CB1C05",
"R. c #C61907",
"E. c #D21B08",
"W. c #C52305",
"Q. c #CD2406",
"!. c #C3230B",
"~. c #CC250B",
"^. c #C32C0D",
"/. c #CC2B0D",
"(. c #D32B0C",
"). c #DB2C0C",
"_. c #D8250A",
"`. c #C5320D",
"'. c #CB360D",
"]. c #DA360D",
"[. c #C32C13",
"{. c #CB2C13",
"}. c #C62513",
"|. c #D32D14",
" X c #DA2913",
".X c #C23214",
"XX c #CB3414",
"oX c #CC3915",
"OX c #C43C1C",
"+X c #CB3C1A",
"@X c #C73619",
"#X c #D33315",
"$X c #D33C13",
"%X c #D93919",
"&X c #E2380E",
"*X c #E42D13",
"=X c #E53814",
"-X c #E1270E",
";X c #C73C23",
":X c #9E4314",
">X c #AA450D",
",X c #A6461A",
"<X c #BD421B",
"1X c #B74616",
"2X c #AF541A",
"3X c #A74526",
"4X c #B84827",
"5X c #A95727",
"6X c #BD542C",
"7X c #B85729",
"8X c #B85C36",
"9X c #AC5230",
"0X c #B8652B",
"qX c #BB6637",
"wX c #BC7338",
"eX c #9D4223",
"rX c #C6451C",
"tX c #D64319",
"yX c #C9541E",
"uX c #E54315",
"iX c #E4451A",
"pX c #EC521E",
"aX c #C54B23",
"sX c #C84726",
"dX c #D34522",
"fX c #D74A24",
"gX c #C5552C",
"hX c #C25B2C",
"jX c #C95528",
"kX c #D75825",
"lX c #C35B31",
"zX c #C75C34",
"xX c #D95C34",
"cX c #C14930",
"vX c #E94D21",
"bX c #EA5724",
"nX c #F25928",
"mX c #F04F21",
"MX c #CB6333",
"NX c #CA6B3D",
"BX c #C66538",
"VX c #D56839",
"CX c #C87539",
"ZX c #D0652F",
"AX c #E66531",
"SX c #BB6B42",
"DX c #C76D43",
"FX c #C47748",
"GX c #D77444",
"HX c #D16F42",
"JX c #D48348",
"KX c #D58352",
"LX c #CF8045",
"PX c #E1814E",
/* pixels */
"-.:X,X2XjXyXA.>.>.>.y.L { K K V 8 < < r r r r - $ $ X X X o * - : < q t E F Q 2.w.<.Z -.,.B.A.A.1Xg.g.'.tXtX&X].&X*X-X-XE.R.*.` ",
":X,X2XjXhX1X,.K A y.y.{ L L U C z y y a r a a e - - ; $ X X $ = : q d t i <.2.=.q.=.=.q.w.A.A.d.d.g.rXrXtX$X].).).-X-X-XE.T.@.U.",
",X,X2XjXrXg.>.>.>.y.y.y.y.K H G D G Z Z Z Z F p 4 r ; $ o o o - , f f g f 2.3.1.9.=.=.>.>.B.A.B.y.a.g.rXrX$X#X).)._.E.E.E.E.E.R.",
":Xw.,X>Xd.g.y.t.:.y.{ r.L C C H P U H A K G G G S 7 , $ $ $ $ $ 4 e u u u i p F Z y A ;.:.q.Z.t.t.V.S..X@XoX/.(._.-X-XU.E. X XE.",
"3X:Xw.,.d.V.t.:.L e.{  .L K K C J Y H K L K Y Y P S w 4 - = ; = 3 , 4 4 e 7 q i V F A U k.k.c.Z.t.V.S.F.D.[.b.!.R. X XU.U.E.E.E.",
"eXq.-.>.d.l.:.K K J J L L K K H I L H H J J | | Y ( Q Q g e 3 3 , 3 u g g F F F 2.5.5.:.Z.Z.Z.I.c.k.k.e.M.G.m.}.!.}.~.U.U.U.R.R.",
"eXq.-.>.6.:.K C K H m J L K K L L J L L J J |  .| Y G E Q d u 2 4 e g d d p S w ( 7.z.x.Z.M.M.M.I.L.e.L h.j.j. .&.b.}.+.R.R.R.*.",
"w.w.-.A ;.C C C K H K H L U :.L H J L e.K H { { | U C V p d s q u q q w w w c z D / z.h.| h.c.l.k.c.h.Y :.e.L { J ..O...*.R.+.R.",
";.=.=.9.A 8 8 V V U U U U K K h.j.e.k.L L e.L Y :.C A F 7 7 s 9 w 5 w v T v z l x P #.#.M J #.j.e.e.h.J I Y H J { M  .O.O...X.*.",
"A V Z 1.G 8 y y y V U 5.5.K H h.j.h.h.:.:.V.k.B.:.A A y > 7 d s 5 5 5 v v b b b m N / #.| | | J J J | J J Y J Y / | $.&...*.*.*.",
"A A F =.G V C Z C =.4.4.4.4.U h.h.#.Y U 8.C.x.8.4.=.p r : < g s 5 5 0 c v c n n n N N I } #.%.M M ] $.| | #.Y Y I Y $.$...' ` *.",
"U G V F V V Z V ;.6.x.( G ! U Y h.h.Y U 4.5.8.8.1.=.p , , r 4 q 0 8 w c c l n l n n N N N / #.I ] } %.| #.h.#.U H I I | } ` ` ` ",
"K A 8 7 8 V K U 5.4.7.7.1.F C C ) z.5.( ( ! 2.2.p <.j r - , 3 u q w w 0 0 6 6 l l R / N N N N b B B B I N / z./ P / Y I } ` B ` ",
"G A 8 7 z U ) h.h.) 7.9.4.Q G C U 5.! F F V Q Q <.<.j , - , 1 4 q q w q 6 5 5 6 6 b R b b b n n n N N n x P ( U G G K I I B ` ` ",
"C V 8 8 D P Y e.e.) ) ( Q Q ! V V F i t d d E E Q F g , # , 1 1 q < q < 9 > 5 6 0 c c c c c c n 6 b c c v z V V 8 y V C N } } ` ",
"V Z y V U Y Y | h.C D Q p t 7 7 y 7 < < i f d s w q i < : 4 1 1 4 4 < > > > 5 0 6 6 6 0 c 0 6 c 0 T 6 5 5 8 w 8 < 5 8 z n P / B ",
"Z y 4.6.k.h.| Y D y i k 3 h k k j a < i Q t Q d E E d 2 7 u u h u : > > 9 5 6 6 6 5 5 5 5 9 9 0 s 2 > 9 2 9 q < < > > < 8 V P ( ",
"V A 6.:.:.| | h.A p a h h k k k <.k <.Q <.f 2.<.Q Q W T E d , < 7 < w T c l c c 6 6 7 > > > > 2 > 2 > : 2 4 q q 7 w y y 5 6 w S ",
"U 5.x.k.e.j.M.l.4.4.j r r a j j 0.9.K.Q d d f ~ Q Q ! ! ~ S < u t 7 ~ W R c v E v v S 6 5 w 9 > > 5 > > q q 7 i S S S z 8 6 8 8 ",
"4.h.5.e.l.S.P.M.h.L.q.<.k eXk k 9.q.K.<.f s g <.2.1.4.4.! F i <.t t ~ E b v c T v y v w 6 w 0 9 6 c 5 9 w q 5 w D G b x C 8 8 7 ",
"U 5.:.t.V.J.H.J.;XI.3XL.3X3X3Xw.q.q.1.9.Q 4 a f 3.3.9.q.1.G F 2.f p 2.Q ! E v S F i 8 w w w w E b z z D S v v C b P C b A b 8 y ",
"U 6.C.Z.t.V.P.sXcX4XcX4X3X3X4XA.3X3Xq.K.3.u k a a -.=.;.6.6.G F F 1.2.4.2.F F 8 G F y F F F S D P x P ( ^ D R P H x m P D G D y ",
"9.8.A.L.t.V.<XxXxXsX4X4XcXgXlX6X6X6X3X9XK.0.0.k r -.=.>.8.x.;.U ;.;.F F =.y V V G =.=.3.1.1.G C ) Y / / / / N N P x H C z A G y ",
"4.;.6.B.t.J.rXxXxXaXrXcXzXlXjX6X6XqXNXDX9X8XeX0.a j 9.6.k.k.h.:.C.k.;.A =.V 4.:.6.:.;.w.8.5./ U Y c.h.} %.I I B N P ( C 6 6 F z ",
"1.A K k.V.g.fXxXjXjXzXzXVXMX7XhXhXBXGXHXCX7X8X9X0.j 6.:.F.l.y.G.;X4Xl.j.h.:.:.K B.V.l.F.I.M.h.| l.v.j.#.$.%.B B N / P A z 5 8 D ",
"=.A :.t.y.D.<XjXjXzXHXzX6X8XhX7XMXGXPXGXCX0X5X0Xw.a B.Z.I.S.r.a.N..Xn.G.n.y.y.y.y.J.S.D.;XG.n.M.M.M.j.| $.#.%.I P I P ^ W 8 7 7 ",
"G 4.k.y.g.rX<XjXjXzXBXNXlXlXNXNXCXJXJXLXCX0XwXwXq.-.3XcXsXn.y.s.s.s..X+XD.S.S.g.V.OXOX@XOX;Xn.N.N.G.v.| / #.I N m / ^ ^ ! V y < ",
";.w.:.V.<X<XaXVXzXBXzXzX6XHXGXKXLXJXLXCXCXJXLXwX5X-.q.J.rX`.f.`.^.W.`.+Xf.D.dXrXdXdXdX+XdXfX@XN.m.n. .{ I P H m m / / P D v t < ",
"w.C.t.<XaX1X1XVXVXVX6X4X4X8XDXKXKXwXwXCX0X2X2X2X2X,.d.g.`.rX'.tX'.W.^.@Xf..XtXtXvXdXfXdXdXxXdX.Xm.i.r.| Y H N m N I ^ ^ v 8 t 7 ",
"B.6.t.J.<X1X1XZXGXhX6X6X3X6XSXKXSX5X5X0X0X2X>X>X>X>X1XtXtXtX].].(.W.W.`.^.oX.X@XfXtXfXdX@XdXdX.X[.a.a.v.j.I H N H x x ( ( S i q ",
"t.e.y.g.g.1X1XZXMXlXVXlX6XDXKXKXLX0XqXBXVXVXZXyXkXkXkXtX].uX].&X(.Q.Q.~./.XX^.'.tXtX%X$XoXXXoX.X.Xm.N.G.M.$.| P P x x ( ( S V 8 ",
"S.H.g.aXrXyXZXZXMXMXBX7X8XSXSXSXSXCXGXMXVXAXAXZXkXkXpXuX].&X&X&X).)._.Q.(.#X^.#X#XtXXX{.XX^..XG.D.N.OX;XP.M.c.#.Y U U ! D V 8 > ",
"D.OXaXaXaXyXhXhXGX8XSXSXSXSX8XqXqXHXBXkXAXAXkXkXnXpXuXuX=X=X].).).). XT.T.W.o./.XXXX[.[.m..Xm.n.N.n.N.G.P.I.c.e.Y ) Y 5.W < < # ",
"g.D.<XrXhXhXhXhXhX7X8XDXSX9XeX8X8XlXjXaXAXAXAXAXnXmXuX&X].].iX%X%X(.).T.T.T.o.W.+X+XXXm.[.N. . .y.r.M.;XP.F.k.U K Y / 7.W 7 1 o ",
"a.D.rXyXZXjXjX6X1XA.8X8X9X3XC.3XcX4XaXsXrXtXtXnXnXpXuXuXuXuXtXtX$X#X X~.~.~.o.u.%X$XXXu.[.[.b.r.J { j.M.I.x.x.U C Y 5.( S 7 1 o ",
"f..Xg.OXsXaX<XjX4XA.I.6X4X3XL.L.I.I.<X<XJ.'.tXiXpXuX].mXnXmXvX'.`.XX|.{.~.W.X.o.{.@XXXu.{.@XN.v.J Y | h.h.) U K ( ) ( ^ w 2 , @ ",
"s.f.f.s.g.a.g.<XaXJ.B.Z.4XI.8.z.c.M.P.G.n.`..X$X'.'.uXmXbXvXiX$X`.[.{.{.{.Y.@.o.u.^.[.X.b.b.&.{ I P K ) ) D D D 5.^ D v 9 : & @ ",
"y.`.f.s.a.a.y.V.F.Z.k.x.z.x.7.( c.#.j.l.N.N..X`.'.'.uXpXiXiXtX'.'.oX.XXX{.}.+.!.+.u. .] ] I J N n x l b D 8 8 V ! v w 8 2 : # $ ",
"i.s.s.a.i.v.k.V.k.x.c.h.P 5.9.V D x I %.v.@X[.{.~.}.%X=X%X%XoX`.'.oXXX+X@X!.+.}.@.[ ] K C C z 6 z w 6 5 5 5 5 6 w 6 9 9 : # % O ",
"y.r.r.r.r.r.L ;.U U D P ^ W V 8 z z P I #.v. .p.O.Y.|.{.|.%XoXXX+X$XdXfX+Xm.+.}.O.M x V 7 q 0 0 5 7 > > > > > > < 5 q > # # % O ",
"| l.j.Y I Y C V V S D V v v v V V 8 z D C K 5.Y L J [ O.@.i.@X;XdX%XdXdXOX[.b.b.v.J V i : : q q > > : 1 2 : : 2 > 2 4 : @ @ O O ",
"Y x.h.P H D ! ! 8 8 D W W G S E S S w S V D G C x H m J { { n.D.@X.XG.OXm.r. .$.j.) G 7 4 1 < 2 1 4 1 : : 1 2 2 : 1 1 & $ % X X ",
"C ( ( G D G G Q 5 8 E D W ^ ^ W S Q Q f p p V x x H x C C C L L { [ r.i. .] | h.) K V 7 q t > : # 4 = @ @ 3 1 1 : # # # % X X X ",
"H K U :.4.! F y i p W S b _ _ ^ W 9.9.<.Q V v P P P C C C :.l.e.{ { r. ...M L Y K V 8 y 7 t u : @ = & @ o @ # 1 # # & @ X X X + ",
"y.{ L Y K V V S F Q ( E v ^ ^ ^ z._ ~ ~ Q i v b b N / ) I $.b.b.a.i.m.b...{ Y Y A C G G 8 8 7 1 # @ o @ % @ # # : # @ $ o X X O ",
"[.p.r.| L K G G G Q 4.! v D ^ / _ ^ E t w 7 8 b P / #.h.$.....}.p.p.b.b.b...e.k.;.9.4.U W 6 9 q & @ o * ; & # 1 : # @ $ o o + + ",
" X|.!.s.r.l.c.5.G D 2.1.F G ( ^ T 0 7 < < < i V ( P Y J { ' [ }.W.W.W.}.p.i.j.k.6.C.9.! W w 5 9 3 @ o @ * & # 1 : & @ o O O O X ",
"*X*X#Xf.i.j.n.h.Y z F V S D b w E 2 > : < q E S b x Y I M [ X.@.o.o.o.!.p.v.a.Z.t.C.L.! w 6 0 > : # @ o % @ @ & - # o o o O % o ",
"=X*X{.{.{.N.v.j.$.P V z V E 0 v w > > q q E W T v D P P J ] +.@.X.R.@.&.b.m.G.J.Z.L.L.2.T s c 9 > 1 # @ o o X o + + X X o o o o ",
"=X%X(.{.@Xb.@.&.j.J n V Q S 0 d q 9 q t i E W v z ^ G D Y $.}.&.@.&.+.&.p.m.n.a.J.I.C.! E R R 0 2 2 1 # @ O o   + X X X O @ @ @ ",
").).~.W.{.!.O.O.b.} P D W i 0 d q i E E W ! W n c S V D ) j.&.!.@.&.&.X.O.b.m.a.y.k.) D v R T 0 2 s 2 # @ % @ X + X X O % @ @ @ ",
").(.Q.W.}.{.{.}.b.j.| A y i w s w t E Q _ 7._ c z V y G z.h.O.&.}.@.O.*.O.b.O.i.y.#./ b T R T 0 9 2 2 # # * * o o o $ * = # # # ",
").Q.Q.(././.|.}.+.p.j.x 8 8 q q 8 w S W _ z._ D V ! S 1.x.M.m.b.&...X.[ O.&.' $. .#./ b c R c 0 9 2 2 # # # @ % @ * * 3 3 3 1 1 ",
").T.~.(.~.~.|.|.{.m.j.U z 7 < u q w S S D ( / U _ 9.4.7.c.c.N.N.&.O...&.&.O.' .. ./ N c 0 0 0 0 9 2 2 2 1 # # # * # # @ 1 3 1 : ",
"(.(.~.~.~.~.|.|.{.b. .5.F 7 # u d v E E D D D ( 7.7.5.C.Z.j.n.G.P.N.&.$.&.} ] J } I N c 0 0 w 0 9 9 2 1 1 # # & # @ @ @ # : : : ",
"(.(.Q.Y.W.Y.Y.|.!...] K G < # e w 0 l c V v D ( ( z.c.I.c.F.F.G.N.N.$.$.$.} ..$.M n n c 0 0 9 > s 9 > > 2 1 1 # # @ @ # : & : 1 ",
"|.|.W.Y.!.Y.Y.!.+...M H F < @ : s s T T w z D P ^ h.c.I.M.G.H.G.P.$.| #.} } I } H l 6 6 c s q 9 9 9 2 1 : # 1 1 # # # @ : , , - ",
"/.#X/.Y.W.!.!.o.p.O. .I v , @ # 2 q 0 T E V D D C I z.c.j.k.l.n.P.z.#./ / P P I n l 6 6 0 9 q 9 > 2 2 2 > : # # # # @ @ @ # # @ ",
"XX%X{.W.Y.+.o.p.+.v.$.I S 7 @ @ 4 s s T R b C z z G 5.h.e.| y.M.M.z./ / ( D z x n 6 0 9 9 2 2 2 1 2 1 2 : # # # # @ # $ @ $ @ $ ",
"|.#X{.!.!.o.@.s.i.&.$.P D t # o 3 u q v v l z z D G U ) Y Y | c.c./ N W E c 8 6 0 5 9 2 2 1 : : 1 # # # @ # @ @ @ @ @ @ @ $ @ $ ",
"/.#X#X#X/.s.p.@.O.} } N W i - @ # < q w S z z y F S D G ^ P U 7.x.P 6 5 9 > 2 q q 2 1 # # # # @ % @ @ @ % @ @ @ @ o o o $ $ @ $ ",
"{.{.#X#X[.u.O.i. ...%.#.( Q , @ @ , t E W S V F S S S b D S D ! _ V > > : : : - = & % % % @ $ $ + + + + o o o o o % @ o o o O o ",
"~.W.W.{.^.o.u.s.O.[ ..#.) Q u # # 7 i i F t y y i w w v v v p i g q : # @ o o o O O + + O O o X           X X + O @ O * @ O o o ",
"Y.W.W.~.p.u.i.r.{ ] ] I ( G u @ r p p 7 y 7 < 7 8 5 6 0 6 w q < > > # @ o X X X     X X + + X   . .   + + O O O O % * ; * @ o o "
};
