/* XPM */
static char *b7f19d8d7a1f40bbcbec05176c8711e4uu8BfiEqRSF9i8Pz[] = {
/* columns rows colors chars-per-pixel */
"64 64 250 2 ",
"   c #010202",
".  c #040A0B",
"X  c #0C0C0C",
"o  c #080707",
"O  c #120E0C",
"+  c #190A07",
"@  c #1A110C",
"#  c #070D11",
"$  c #0E1112",
"%  c #131213",
"&  c #1B1615",
"*  c #1C1B1B",
"=  c #17191A",
"-  c #110F10",
";  c #290C0A",
":  c #350C08",
">  c #2B1509",
",  c #39140C",
"<  c #261917",
"1  c #371913",
"2  c #27231D",
"3  c #38261D",
"4  c #3A2503",
"5  c #101C21",
"6  c #18252B",
"7  c #152C38",
"8  c #242222",
"9  c #2A2929",
"0  c #382B24",
"q  c #383532",
"w  c #2E3233",
"e  c #231F20",
"r  c #4A1A13",
"t  c #591813",
"y  c #4A0E09",
"u  c #681917",
"i  c #7B1D1B",
"p  c #731A1A",
"a  c #61110E",
"s  c #572716",
"d  c #5B3619",
"f  c #492C12",
"g  c #642619",
"h  c #75281A",
"j  c #683814",
"k  c #773910",
"l  c #492A23",
"z  c #49352A",
"x  c #443E38",
"c  c #5A3F33",
"v  c #573228",
"b  c #672824",
"n  c #703226",
"m  c #744E16",
"M  c #46433B",
"N  c #554539",
"B  c #69493A",
"V  c #744F38",
"C  c #535100",
"Z  c #1B3946",
"A  c #293C47",
"S  c #294A59",
"D  c #334A53",
"F  c #12506C",
"G  c #2A5468",
"H  c #355869",
"J  c #335E72",
"K  c #376479",
"L  c #27627E",
"P  c #1B475E",
"I  c #4A4643",
"U  c #564D45",
"Y  c #585348",
"T  c #525853",
"R  c #67564A",
"E  c #785644",
"W  c #6E564C",
"Q  c #53655D",
"!  c #79654D",
"~  c #6B6254",
"^  c #756859",
"/  c #736952",
"(  c #52696C",
")  c #6C6C64",
"_  c #756D62",
"`  c #797667",
"'  c #6A7470",
"]  c #841B1B",
"[  c #89281E",
"{  c #8E311C",
"}  c #8A2921",
"|  c #942823",
" . c #8B3222",
".. c #993328",
"X. c #A83928",
"o. c #B2382A",
"O. c #881A20",
"+. c #864A15",
"@. c #9A5B19",
"#. c #8C5306",
"$. c #A25519",
"%. c #A7681D",
"&. c #B26B1B",
"*. c #BA731E",
"=. c #A97105",
"-. c #984323",
";. c #8A702B",
":. c #AE6B22",
">. c #AE5124",
",. c #C5781B",
"<. c #D3452D",
"1. c #D2602B",
"2. c #845A48",
"3. c #846755",
"4. c #926B52",
"5. c #A6765C",
"6. c #887868",
"7. c #997A67",
"8. c #89786C",
"9. c #A67B65",
"0. c #7C8E7A",
"q. c #D5821B",
"w. c #E29110",
"e. c #D38529",
"r. c #FC9C25",
"t. c #E89124",
"y. c #FAA330",
"u. c #9B934B",
"i. c #888468",
"p. c #98866A",
"a. c #8B8375",
"s. c #938679",
"d. c #9A9674",
"f. c #B8876A",
"g. c #A98575",
"h. c #B68E75",
"j. c #A59675",
"k. c #BA9678",
"l. c #A58D6B",
"z. c #C89877",
"x. c #C88F6F",
"c. c #D7A27D",
"v. c #CAA47F",
"b. c #E3A37E",
"n. c #DF9E49",
"m. c #CFCD6C",
"M. c #908E1E",
"N. c #1D6E94",
"B. c #176E99",
"V. c #1D739B",
"C. c #176488",
"Z. c #366C85",
"A. c #237196",
"S. c #2C7495",
"D. c #267498",
"F. c #2A7699",
"G. c #2E789B",
"H. c #337B9C",
"J. c #397E9E",
"K. c #357593",
"L. c #286C8C",
"P. c #357EA1",
"I. c #387FA0",
"U. c #267BA1",
"Y. c #1271A1",
"T. c #477589",
"R. c #487B95",
"E. c #557C8B",
"W. c #3B809F",
"Q. c #3581A4",
"!. c #3D82A1",
"~. c #3B86A8",
"^. c #2F81A7",
"/. c #47829D",
"(. c #588395",
"). c #6D8992",
"_. c #4385A3",
"`. c #4A86A2",
"'. c #4B89A6",
"]. c #438AAB",
"[. c #4A8BA9",
"{. c #528BA5",
"}. c #538EA9",
"|. c #5591AB",
" X c #5B93AC",
".X c #4D92B2",
"XX c #5A97B3",
"oX c #5191AF",
"OX c #6495AA",
"+X c #639BB5",
"@X c #799AA6",
"#X c #6CA2BB",
"$X c #999585",
"%X c #8D918C",
"&X c #A19D88",
"*X c #B09586",
"=X c #9DA299",
"-X c #B4AB8D",
";X c #A7A798",
":X c #AEA98C",
">X c #93A7A9",
",X c #B8B6A7",
"<X c #ACB2AC",
"1X c #839FA4",
"2X c #C89B85",
"3X c #C9A584",
"4X c #D3AA88",
"5X c #D9B38B",
"6X c #DBB894",
"7X c #DBAD92",
"8X c #E6A983",
"9X c #E7BB96",
"0X c #EFB68D",
"qX c #CEB9A7",
"wX c #F5BFA0",
"eX c #BEC3B6",
"rX c #BEC0AD",
"tX c #E8C298",
"yX c #F6C99C",
"uX c #C5C5B6",
"iX c #D7D5BB",
"pX c #D1CEAE",
"aX c #F7C6A4",
"sX c #FDD4A4",
"dX c #FFDBAC",
"fX c #FAD1A5",
"gX c #FDDCB4",
"hX c #E6D3B2",
"jX c #EAE5B9",
"kX c #FDE4BA",
"lX c #E9EA97",
"zX c #BBCBCB",
"xX c #D7D8C7",
"cX c #D5D7D3",
"vX c #CDD0C8",
"bX c #E3DDC9",
"nX c #E5E5CC",
"mX c #EAEDDC",
"MX c #E6E7D6",
"NX c #F8F2CF",
"BX c #E8EAE2",
"VX c #EEF2E5",
"CX c #F5FBEC",
"ZX c #FBFDEC",
"AX c #F4F7E6",
"SX c #FCFFF4",
"DX c #FEFFFD",
"FX c #F6FDF1",
"GX c #F1EDF0",
"HX c #E2DFE4",
/* pixels */
"N.N.N.N.N.N.B.N.N.N.N.N.N.N.N.N.N.N.N.N.N.N.N.N.N.N.N.N.N.N.A.N.N.A.N.N.N.N.N.N.N.N.N.N.N.N.N.N.N.N.N.N.N.N.N.N.N.N.N.N.N.N.N.N.",
"N.N.N.N.N.N.N.N.N.N.N.N.N.N.N.N.N.N.N.N.N.N.N.N.N.A.A.N.N.A.A.A.A.A.A.A.A.A.N.N.N.N.N.N.N.N.N.N.N.N.N.N.N.N.N.N.N.N.N.N.N.N.N.N.",
"N.N.N.N.N.N.N.N.N.N.N.N.N.N.N.N.N.N.N.N.N.A.N.A.A.A.D.A.D.D.D.S.D.D.D.D.A.D.D.A.A.A.V.N.N.N.N.N.N.N.N.N.N.N.N.N.N.N.N.N.N.N.N.N.",
"N.N.N.N.N.N.N.N.N.N.N.N.N.N.B.N.N.N.N.N.A.A.D.D.D.D.F.F.F.F.F.F.F.F.F.F.F.D.S.D.D.A.A.A.N.A.N.N.N.N.N.N.N.N.N.N.B.N.N.N.N.N.N.N.",
"N.N.N.N.N.N.N.N.N.N.N.N.N.N.N.N.N.A.A.A.D.A.D.F.F.G.G.G.G.G.F.H.G.G.G.G.F.F.G.F.G.S.D.A.A.A.A.N.N.N.N.N.N.N.N.N.N.N.N.N.N.N.N.N.",
"N.N.N.N.N.N.N.N.N.N.N.N.N.N.N.N.A.A.D.D.F.F.G.F.G.G.G.H.G.H.H.H.H.H.H.H.H.G.G.G.G.G.F.S.S.A.D.A.N.N.N.N.N.N.N.N.N.N.N.N.N.N.B.N.",
"N.N.N.N.N.N.N.N.N.N.N.N.N.N.N.A.D.D.S.G.G.G.H.H.H.H.H.H.H.J.H.J.H.H.J.H.H.H.H.H.G.G.G.G.F.D.D.D.A.A.N.N.N.N.N.N.N.N.N.N.N.N.N.N.",
"N.N.N.N.N.N.N.N.N.N.N.N.A.A.A.S.S.F.G.G.G.H.H.H.H.J.J.I.J.I.I.J.J.J.J.J.J.I.Q.Q.P.P.G.G.G.G.F.D.D.A.A.A.N.N.N.N.N.N.N.N.N.N.N.N.",
"N.N.N.N.N.N.N.N.N.N.N.N.A.D.D.F.F.F.H.F.F.!.J.J.I.I.J.I.J.J.I._._.].].].].J.Z.K Z.K.Q.Q.P.F.G.F.F.F.D.A.A.N.N.N.N.N.N.N.N.N.N.N.",
"N.N.N.N.N.N.N.N.N.N.A.A.D.S.D.D.H.H.F.|.XXS.H._.J.`.J.`.`._.].I.J S S J S 8 & O o # Z Z.K.Q.P.G.F.F.D.S.A.A.N.N.N.N.N.N.N.N.N.N.",
"N.N.N.N.N.N.N.N.N.A.A.D.F.D.'.#XH.H.H.OX;X<X(.K.'.]._.J.'.].H 9 % O O O o o   X X o     % S S.P.H.F.F.F.D.A.N.N.N.N.N.C.N.N.N.N.",
"N.N.N.N.N.N.N.N.N.A.A.S.F.K.<X{.H.J.!.!.T.xXVX<XT.R.J._.`.D < % % % % % = * 9 e 8 q 9 %     e J Q.H.F.F.D.D.A.A.N.N.N.N.N.N.N.N.",
"N.N.N.N.N.N.N.A.A.A.F.G.N.zXuXN._.!.H.K.K.' <XSXvXcX1XOXA & - % % % % % - % * e % 8 w x 9 - O * K.W.G.F.F.F.F.A.N.N.N.N.N.N.N.N.",
"N.N.N.N.N.N.N.A.A.F.G.F./.ZX=XL.S.J.OX<XcXcXDXCXNX8.W x o # % - O - - % * * % X % X X % * < w O G Q.H.G.F.F.F.D.A.N.N.N.N.N.N.N.",
"N.N.N.N.N.N.A.A.F.F.F.F.(.VX;X).<XxXCXDXDXDXDXnXV y 3 ~ 9 $ - X * % 8 I 9 I I & - % % % % X 8 @ G ~.W.H.H.F.F.D.A.A.N.N.N.N.N.N.",
"N.N.N.N.N.V.A.F.F.F.H.K.' mXSXSXAXjXAXCXCXSX;Xf : R nX%Xo - & q I O * q o % e % X % % * = $ = O H ~.H.W.H.H.F.F.S.A.N.N.B.N.N.N.",
"N.N.N.N.N.A.D.D.F.W.D.( hXZXSXMXpXj.;XAXZX&X! ,XBX,X<XA o 8 I I 2 - 2   < 0   % % % % o % % * & G ].W.W.H.H.H.F.F.D.A.N.N.N.N.N.",
"N.N.N.N.N.D.S.F.S.^.L.-XnX%X6.! B f R p.p.p.DXDXZXDX*X* 9 I q =   c x.3   E 0 . & = X E z . * @ S ].W.W.W.H.H.F.F.F.A.A.N.N.N.N.",
"N.N.N.N.A.D.F.F.Q.F.' jXvX& : y , s.DXbXE *XDXu.M.DXBXT I 8 - X X f.5.x.l.p.c.3   % $ 3Xf.  8 % S ].W.W.W.H.W.G.F.F.D.A.N.N.N.N.",
"N.N.N.N.A.F.F.G.^.F.%XjXVX$X/ 3.MXDXNXDXqX8.DXm.m.DXGX` < X % o 2.c.B z.dXsXdXyX! & o 3.tX& <   H [./._.W.Q.H.H.H.F.D.D.A.N.N.N.",
"N.N.N.A.D.F.F.H.Q.L d.jXnXDXiX-XDXjXC lXGXE =XDXDXGXuX) o $ . c b.b.x.sXdXyXgXkXNXsXc.5XyX3 X   Z.oX/._.!.!.H.H.H.G.F.A.A.N.N.N.",
"N.N.A.A.D.F.F.H.Q.Z.-XiXAXSXbXp.DXkXm.ZXcXx T ~ ;X,XvXT o $   V 0Xb.f.h.v.tXsX6X! 6.p.l.yXk.<   S oX_._.!.W.W.H.H.G.G.D.A.N.N.N.",
"N.N.A.D.F.F.H.H.!.G i.d.d.NXCXd.,XDXSXDXrXR I xXmXSX=X% X o   c z.v 2 &   R kXh.1 z 0 @ 6X5X  < ) ].[.`._.!.!.W.H.F.F.F.D.A.N.N.",
"N.N.A.D.F.F.H.H.W.K.T ,X%X/ jXNXj.$X,X-XpXMX,XFXSXxXw E < o   < V 3.3X7Xs.5.dXz.h.7X2XW N N z 4.).[.[.'._._.W.W.H.H.F.F.D.D.N.N.",
"N.A.A.D.F.H.H.H.!.S.<XDXDXcX` iXxXiXpXnXVXFXDXSXDXcXa.9.1   0 & c 9XwXwXwX*XwXf.9XwXaX2XU wXyX! /.}.'.'._._.!.J.H.H.F.G.A.A.A.N.",
"N.N.A.S.F.F.H.W.Q.E.AXCXAXDXuX6.nXCXZXZXCXVXVXCXDXDX=X! 4.  3 V W wXs.c aX*X7.7.aX6.9.aX*XdX4X6.[.|.'.'._._.!.!.J.H.H.F.F.A.A.N.",
"N.N.A.F.H.H.H.!.H.1XSXAXCXmXFXd.bXAXCXCXDXAXCXiXnXSXcX) x.B   2.R 7X2X*XaXg.3X4.wXk.7XhXz.NXf.7.`.|.'.'.`._._.J.I.H.H.H.F.A.A.N.",
"N.A.D.F.F.H.H.!.G.>XvXVXAXvXDX&XiXmXCXDXDXCXFXnXxXSXSX>XW 5.< V 5.4.7X7Xz.5.5X7.9.2X2Xk.9XgXV ' |.|.}.'.'._._.W.I.H.H.F.F.A.A.N.",
"A.A.D.F.F.H.H.!.H.1X&XBXmX;XDX<XuXvXBXSXCXCXCXSXDXAXmX<XN x.B 2.z.b.f.z.8Xf.yXtX9Xv.v.fXkX6X$ /.XX}.}.'.'._._.!.W.H.H.H.F.D.A.N.",
"N.A.F.F.F.H.H.W.P.E.s.vX,X&XSX,X,X,XvXCXVXBXmXVXcXqX,XrXM c < E x.b.8XdXh.k.yXdXv.sXkXkXgX5XX (. X|.}.'.'._._.!.J.H.H.F.F.D.A.A.",
"N.A.D.F.H.H.W.W._.Z.).pX;XrXDX$Xd.VXMXrXeX;X,XrXmXmXmXxXq     B x.b.5XsXh.B k.k.p.sX5X4XdXz.  T.+X}.}.{.'._._._.!.H.H.H.F.D.A.N.",
"N.D.D.F.G.H.H.W.!.H.>X;X<XvXHX/ j.rXuXxXmXSXmXxXFXDX,X` 9     z 5.b.0X5XtXyXtXtXdX6XtX9XdX6.5 OX X|.}.'.'._._.!.W.J.H.F.F.F.A.N.",
"N.A.D.F.H.H.J.!.!._.T.(.;XVX).2 l.-X-X,XDXDXCX&XnXjXd.M 8 D $ @ 4.x.0X5Xf.k.v.3Xz.5XyXkXtX).(. X|.|.}.[.`._._.!.!.I.H.G.G.D.A.N.",
"A.A.D.F.G.H.H.W._._.].Z.;XeX{.R.Q 0.d.iXDXDXSXi.' @X#X! ;.T     l x.b.yXsXyXv.3XsXsXkXtXE.XX+X X X|.}.}.[.`._.!.I.H.H.G.S.D.A.A.",
"N.A.D.F.G.H.H.I.!._._.R.%X'.}.XX X{.E.=X<X&X%X' OX(.w =.#.4 > 4 + B f.0XsXsXsXfXsXyXk.d m N }. X|.|.}.'.'._._.J.I.J.H.G.G.D.A.N.",
"N.A.D.S.G.H.J.I.J._._.`._.[.}. X X+X X}.` #.T.OXw   @ 9 X %.%.*.> N V 5.v.tX4X5X4Xc.p.4 ,.$.H #XOX{.{.'.`.`._._.J.J.H.G.F.D.A.N.",
"N.A.D.F.G.G.H.J.!._._._.'.}.}.|. X X+X#X0.w.;.&         s *.@.e.+.; c B V 9.f.9.z.yXh.s y.*.  6 Z..X.XoX'._._.J.I.H.G.G.F.D.A.N.",
"N.A.A.F.G.H.H.J.W._._.`.'.}.}.}. XOX XXXu.=.m N   + r r m y.%.@.s ] a r 3 ;.4.4.V n [ ..e.@.; > d ) Q K J.]._.J.I.H.H.G.S.A.A.N.",
"N.N.A.F.G.G.H.H.I._._._.'.'.}.}. X X XXXi.3 # = > b g g 1 e.y.&.1 u } | p +.,.w.,.t i | :.d ] ..y.r.,.p b J !.I.J.H.H.F.F.A.N.N.",
"N.A.A.D.F.H.H.J.I.!._._.'.'.}.}.|. X X+XD * . ,  . . .h < 0 ,.+.u t t a u u ,.,.:.g O.] r r u j q.q.*.h X.] J _.H.H.G.F.D.D.N.N.",
"N.A.A.D.F.G.H.H.J.!._._._.'.'.}.|.|.+XT.o . > o.<.<.<.g M U ` : ] | h u y f @.%.t.$.b U x , , ; @ f f , t i h Z.!.H.F.F.F.A.N.N.",
"N.N.A.D.F.F.H.H.H.!.!._._.'.'.}.|.{.XXA X @ >.<.o.<.<.u M N s.qXl a | | | g q.r.%.f ` _ ~ l { g >   +.,.m ; y A Q.G.F.F.D.A.N.N.",
"N.N.N.A.D.F.G.H.J.I.W._._.'.'.'.{.|.{.= . , h r > h <.X.> Y M NX$Xl : a p t m b x 8.W U a.q h } ,     @.h t u ; D.G.F.D.A.A.N.N.",
"N.N.N.A.A.G.F.F.H.H.!.!._._.'.'.{.|.T.$ % o     .   s o.h 3 z a.7.*X! & ; r O.u 3.2X3.~ U M  .{ @ $     t i | a P Q.D.D.A.N.N.N.",
"N.N.N.A.D.S.F.G.H.H.!.!.!._.`.'.[.oXR.o X X % & & %   , X.h 2 q R 9.2X7.1 u | b 7.g.R ) ^ U | h - o -   : p p ] w G.D.A.N.N.N.N.",
"N.N.N.N.A.D.F.G.G.H.H.W.!._._._.'.|.7   o O $ X % = * . > X.t M _ U ^ g.^ ; u i V ) _ U 8.n o.s $ % o . + { $.%.v C.F.A.N.N.N.N.",
"N.N.N.N.A.A.D.F.G.H.H.W.!.!._._.'._.S S A 5 O O $ o - & . @ ..s Y _ _ R R : p O.p _ I 3.7.b o.1 # e -   @ &.t.r.t.H D.V.N.N.N.N.",
"N.N.N.N.N.A.D.F.G.H.H.H.J.W.W._._.'..XoX|.(.J 5 - % X   X . + { 1 q U ` ) W l b _ T W 9.) b | O % % 2   @ @.,.t.y.R B.A.N.N.N.N.",
"N.N.N.N.N.N.A.D.G.G.F.H.H.!.!.!._._._.`.`.[.XX/.= X % %     . + h c R x M _ _ ) ` R 4.s.Y h f X % $ 8 . @ %.*.t.r.;.B.N.N.N.N.N.",
"N.N.N.N.N.N.A.A.D.S.G.H.H.J.J.W.!._._.`.'.'._.XXK   % O O   o . @ u 3.5.W z q U T 4.7.a.Y g < $ % < * X + g k { -.B C.D.N.N.N.N.",
"N.N.N.N.N.N.N.A.A.F.F.G.H.H.J.J.!.!._._._.`.'.'.[.A = 6 6 O     # ; v 8.9.7.! z E 7.a.a.N , $ * * % o . ; t u O.o.i F Y.N.N.N.B.",
"N.N.N.N.N.N.N.N.A.D.F.G.G.H.H.H.J.W.!.!._._._._.].[.'.[.oXA o   o # : R %X8.7.7.W 8.a.8.z + = & - % - . ; u i [ ....F U.N.N.N.N.",
"N.N.N.N.N.N.N.N.N.A.D.F.G.G.H.H.H.!.W.!.!._._._._._._.'.`.6 o     X O 1 8.%X8.a.~ 8.7.8.0 $ & $ % % %   , u p u i u P V.C.N.N.N.",
"N.N.N.N.N.N.N.N.N.A.A.A.D.F.G.G.H.H.H.!.W.W.!._._._._.`.R.Z =       X + W s.s.a.E.E.R.`.6 X X O X % %   : t +.&.*.e.G V.N.N.N.N.",
"N.N.N.N.N.N.N.B.N.N.A.A.D.D.F.G.G.H.H.W.H.W.W.!.!.!._.!.!..XG       o   0 %X(.J.I.P.P.~.G $ 5 7 6 O %   j %.t.r.y.x.C.N.N.N.N.N.",
"N.N.N.N.N.N.N.N.N.N.N.A.A.D.D.F.F.H.F.H.H.H.H.!.W.W.!.W.W.].S       o 7 Z.J.I.I.I.I.P.P.W.L.W.^.L.X O   #.@.k m Q C.N.N.N.N.N.N.",
"B.N.N.N.N.N.N.N.N.N.N.N.N.A.A.F.F.G.G.F.H.H.H.H.H.I.H.!.H.~.S o # Z Z.~.Q.J.H.W.W.D.W.W.D.^.S.L.V.L Z 7 w 7 7 F B.N.N.N.N.N.N.N.",
"N.N.N.N.N.N.N.N.N.N.N.N.N.N.A.A.A.D.S.F.F.F.F.H.H.H.H.H.W.H.H.K.H.~.!.H.H.H.H.H.W.S.A.D.D.L.^.D.N.B.^.V.Y.B.V.V.N.N.N.N.N.N.N.N.",
"N.N.N.N.N.N.N.N.N.N.N.N.N.N.N.A.A.A.D.D.F.G.F.F.G.H.G.H.G.H.H.P.H.G.H.H.H.H.G.G.L.^.^.L.D.D.V.A.N.N.N.N.N.N.C.N.N.N.N.N.N.N.N.N.",
"N.N.N.N.N.N.B.N.N.N.N.N.N.N.N.N.N.A.A.D.D.D.F.F.F.F.G.F.G.G.H.F.G.G.G.S.F.F.F.F.^.A.L.^.A.L.N.N.N.N.N.N.N.N.N.N.N.N.N.N.N.N.N.N.",
"N.N.N.N.N.N.N.N.N.N.N.N.N.N.N.N.N.N.N.N.A.A.D.A.D.D.F.F.F.F.F.S.F.F.F.F.F.F.D.D.A.A.A.A.N.N.N.N.N.N.N.N.N.N.N.N.N.N.N.N.N.N.N.N.",
"N.N.N.N.N.N.N.N.N.N.N.N.N.N.N.N.N.N.N.N.N.N.A.A.A.D.A.A.A.D.D.D.D.D.D.D.D.A.D.A.A.A.A.N.N.N.N.N.N.N.N.N.N.N.N.N.N.N.N.N.N.N.N.N.",
"N.N.N.N.N.N.N.N.N.N.N.N.N.N.N.N.N.N.N.N.N.N.N.N.A.N.A.A.A.A.A.A.A.A.A.A.A.A.N.N.N.N.N.N.N.N.N.N.N.N.N.N.N.N.N.N.N.N.N.N.N.N.N.N.",
"N.N.N.N.N.N.N.N.N.N.N.N.N.N.N.N.N.N.N.N.N.N.N.N.N.N.N.N.N.A.N.N.A.N.N.N.N.N.N.N.N.N.N.N.N.N.N.N.N.N.N.N.N.N.N.N.N.N.N.N.N.N.N.N."
};
