/* XPM */
static char *a84f60902e6c49d7981851adc225f132fF3XP1CHdL5A0Hw1[] = {
/* columns rows colors chars-per-pixel */
"64 64 238 2 ",
"   c #030303",
".  c #030609",
"X  c #060B0A",
"o  c #0B0C0C",
"O  c #090706",
"+  c #130D0D",
"@  c #190D0A",
"#  c #18120D",
"$  c #1D0E12",
"%  c #0E1112",
"&  c #131213",
"*  c #1C1314",
"=  c #1B1719",
"-  c #1D1A1B",
";  c #191817",
":  c #0E0F10",
">  c #290C0C",
",  c #28170C",
"<  c #33120C",
"1  c #221215",
"2  c #241419",
"3  c #291419",
"4  c #221C1D",
"5  c #291A18",
"6  c #34151B",
"7  c #29211D",
"8  c #392718",
"9  c #342006",
"0  c #351C21",
"q  c #3B1B22",
"w  c #291C20",
"e  c #252223",
"r  c #2A2425",
"t  c #262529",
"y  c #2D262A",
"u  c #2B292D",
"i  c #3A2225",
"p  c #322A2E",
"a  c #3B2729",
"s  c #37322E",
"d  c #2A2C30",
"f  c #342D32",
"g  c #3B2E33",
"h  c #363134",
"j  c #3A3135",
"k  c #3C3439",
"l  c #33373D",
"z  c #2D3337",
"x  c #481411",
"c  c #551410",
"v  c #681616",
"b  c #731A1B",
"n  c #6F120E",
"m  c #45281D",
"M  c #542517",
"N  c #4F300F",
"B  c #682416",
"V  c #663E12",
"C  c #723014",
"Z  c #431E25",
"A  c #4B1C2B",
"S  c #4B212A",
"D  c #46272D",
"F  c #58292B",
"G  c #48352B",
"H  c #563528",
"J  c #4C2C33",
"K  c #432B32",
"L  c #592B34",
"P  c #433B38",
"I  c #593537",
"U  c #69312C",
"Y  c #75382C",
"T  c #672A36",
"R  c #7C2D3B",
"E  c #762B3A",
"W  c #64323B",
"Q  c #6B323C",
"!  c #693334",
"~  c #75343A",
"^  c #712A22",
"/  c #7C4513",
"(  c #594338",
")  c #4A473A",
"_  c #68473A",
"`  c #735234",
"'  c #383B41",
"]  c #6E3841",
"[  c #7D3542",
"{  c #7C3A44",
"}  c #7A3D49",
"|  c #743944",
" . c #3C4248",
".. c #554C45",
"X. c #5D5647",
"o. c #5C5C54",
"O. c #4E5346",
"+. c #684A45",
"@. c #7E4749",
"#. c #69564A",
"$. c #775848",
"%. c #7B4351",
"&. c #675C54",
"*. c #7C5757",
"=. c #6A6257",
"-. c #75665A",
";. c #787358",
":. c #726D4E",
">. c #7D7368",
",. c #6F6C66",
"<. c #862B1D",
"1. c #8F3516",
"2. c #953322",
"3. c #822D3C",
"4. c #83303F",
"5. c #892E27",
"6. c #AB3825",
"7. c #905013",
"8. c #AB6715",
"9. c #91583C",
"0. c #855430",
"q. c #A34633",
"w. c #AC6F2E",
"e. c #90642C",
"r. c #DE482F",
"t. c #862D40",
"y. c #843442",
"u. c #893444",
"i. c #863946",
"p. c #883847",
"a. c #873C49",
"s. c #893E4B",
"d. c #903B4A",
"f. c #85414D",
"g. c #89414E",
"h. c #814B4D",
"j. c #92414F",
"k. c #865648",
"l. c #844551",
"z. c #8A4552",
"x. c #8C4955",
"c. c #8D4C5A",
"v. c #854559",
"b. c #924956",
"n. c #934C59",
"m. c #944755",
"M. c #875358",
"N. c #97545E",
"B. c #87614F",
"V. c #836150",
"C. c #95785D",
"Z. c #97664C",
"A. c #8B5861",
"S. c #985C67",
"D. c #83796D",
"F. c #887568",
"G. c #967B67",
"H. c #877D72",
"J. c #916368",
"K. c #AF7D63",
"L. c #A6745B",
"P. c #CD821C",
"I. c #DB871F",
"U. c #D98A27",
"Y. c #DF9128",
"T. c #E19225",
"R. c #8C8175",
"E. c #8C8676",
"W. c #92867B",
"Q. c #9C977D",
"!. c #A9866B",
"~. c #AB8C74",
"^. c #A59878",
"/. c #B69274",
"(. c #BC9679",
"). c #BD8869",
"_. c #BEA17C",
"`. c #B8B655",
"'. c #C79A78",
"]. c #D59B79",
"[. c #C48B6E",
"{. c #CBA17F",
"}. c #C2C476",
"|. c #A57D83",
" X c #9A9888",
".X c #9D8586",
"XX c #BE9983",
"oX c #A59D89",
"OX c #A8A799",
"+X c #B1AD8E",
"@X c #AEABA2",
"#X c #BBB8A8",
"$X c #BCBDB4",
"%X c #B3A9A3",
"&X c #CAA686",
"*X c #D6AD89",
"=X c #D8B38C",
"-X c #DCB893",
";X c #D7AC94",
":X c #F3B78D",
">X c #E7BD97",
",X c #C2BAA6",
"<X c #C5BDB4",
"1X c #BFC2B5",
"2X c #C7C198",
"3X c #F8CB9E",
"4X c #E8C397",
"5X c #DFE198",
"6X c #C9C8AC",
"7X c #CBCABC",
"8X c #C7C6B5",
"9X c #D8D6B6",
"0X c #EDCAA4",
"qX c #FCD6A9",
"wX c #F1CFA8",
"eX c #E3E5B6",
"rX c #CAC9C4",
"tX c #DBDCCD",
"yX c #D7D8C9",
"uX c #D9DCD5",
"iX c #CED1C1",
"pX c #E4DAD0",
"aX c #DAE1D3",
"sX c #DCE1CE",
"dX c #E3E4CC",
"fX c #E2E4D6",
"gX c #EAECDC",
"hX c #E6EBDA",
"jX c #ECF1DC",
"kX c #F7F8D8",
"lX c #F4F1C6",
"zX c #E9ECE1",
"xX c #F5FAEA",
"cX c #F5F7E8",
"vX c #FBFEF4",
"bX c #FEFEFC",
"nX c #F5FCF2",
"mX c #F0EEE9",
/* pixels */
"3.3.3.3.3.3.3.3.3.3.3.3.5.3.3.3.3.3.3.3.3.3.3.3.3.3.3.3.3.3.3.3.3.3.3.3.3.3.3.3.3.3.3.3.3.3.3.3.3.3.3.3.3.3.3.3.3.3.3.3.3.3.3.3.",
"3.3.3.3.3.3.3.3.3.3.3.3.E 3.3.3.3.3.3.3.3.3.3.3.3.3.3.4.3.4.4.4.4.4.4.3.3.3.3.3.3.3.3.3.3.3.3.3.3.3.3.3.3.3.3.3.3.3.3.3.3.3.3.3.",
"3.3.3.3.3.3.3.3.3.3.3.3.3.3.3.3.3.3.3.3.3.3.3.3.4.4.4.4.4.4.4.4.4.4.4.4.4.4.4.4.3.3.3.3.3.3.3.3.3.3.3.3.3.3.3.3.3.3.3.3.3.3.3.3.",
"3.3.3.3.3.3.3.3.3.3.3.3.3.3.3.3.3.3.3.3.3.3.4.4.4.4.3.y.4.4.y.4.y.4.y.4.y.4.4.4.y.3.y.3.3.3.3.3.3.3.3.3.3.3.3.3.3.3.3.3.3.3.3.3.",
"3.3.3.3.3.3.3.R 3.3.3.3.3.3.3.3.3.3.4.3.4.4.4.y.y.y.y.y.y.y.y.y.y.y.y.y.y.4.y.4.4.y.3.3.4.3.3.3.3.3.3.3.3.3.3.3.3.3.3.3.R 3.3.3.",
"3.3.3.3.3.3.3.3.3.3.3.3.3.3.3.3.3.4.y.4.y.4.y.y.y.y.y.y.y.y.p.y.y.y.y.y.y.y.y.y.4.y.y.4.4.y.4.3.3.3.3.3.3.3.3.3.3.3.3.3.3.3.5.3.",
"3.3.3.3.3.3.3.3.3.3.3.3.3.3.3.3.4.4.4.4.y.y.y.y.y.y.y.y.y.y.i.y.y.i.y.y.y.y.y.u.y.y.y.y.y.4.4.4.3.3.3.3.3.3.3.3.3.3.3.3.3.3.E 3.",
"3.3.3.3.3.3.3.3.3.3.3.3.3.3.3.3.4.4.y.y.y.y.y.y.y.y.y.i.y.i.i.p.i.i.i.i.i.y.i.y.y.y.y.y.y.y.4.y.3.3.3.3.3.3.3.3.3.3.3.3.3.3.3.3.",
"3.R 3.3.3.3.3.3.3.3.3.3.t.y.R y.4.y.y.y.y.i.y.i.p.i.p.a.i.i.{ ! ~ d.d.p.i.y.i.i.y.y.i.y.y.y.y.y.4.4.y.3.3.3.3.3.3.3.3.3.3.3.3.3.",
"3.3.3.3.3.3.3.3.3.3.3.3.3.t.y.y.y.y.y.i.i.y.y.i.i.s.~ D 0 i ; % + 3 T s.s.i.i.i.i.i.i.y.i.y.y.y.y.y.t.R t.3.3.3.3.3.3.3.3.3.3.3.",
"3.3.3.3.3.3.3.3.3.3.3.t.y.3.y.y.y.y.y.i.i.i.i.i.i.W - % % X & 4 t e X i i.i.a.i.i.i.i.i.y.y.y.y.y.y.3.y.y.3.3.3.3.3.3.3.3.3.3.3.",
"3.3.3.3.3.3.3.3.3.3.t.t.y.y.y.y.i.y.p.i.i.i.i.s.i.1 X : ; r t & % - - ; Q g.a.a.s.i.i.i.i.i.i.y.y.y.y.y.y.4.3.3.3.3.3.3.3.3.3.3.",
"3.3.3.3.3.3.3.3.4.t.y.y.y.y.y.y.p.i.i.i.a.i.i.s.{ * 7 h ; 4 e ; & X % ; W g.a.a.s.i.a.i.i.i.i.i.y.y.y.y.y.t.[ 3.3.3.3.3.3.3.3.3.",
"3.3.3.3.3.3.3.3.4.3.y.y.y.y.y.y.i.i.i.i.a.a.a.g.T e h & _ 8 G X . G 7 % W j.a.s.s.a.a.a.a.i.i.i.i.y.y.y.y.t.3.y.3.3.3.3.3.3.3.3.",
"3.3.3.3.3.3.3.4.4.y.y.y.y.y.i.i.i.a.a.a.a.s.g.g.a.a . G ).=X3X~.7 !.#.  Q j.a.s.s.s.a.a.s.a.i.i.i.i.i.y.t.u.3.3.3.3.3.3.3.3.3.3.",
"3.3.3.3.3.3.4.4.4.y.y.y.i.y.i.i.i.a.a.a.s.s.f.g.{ o % ].[.'.wXwX~._./.  W x.f.g.f.g.s.s.a.a.a.a.i.i.i.y.u.t.3.3.3.3.3.3.3.3.3.3.",
"3.3.3.3.3.3.3.3.4.y.i.y.i.i.p.i.i.g.a.g.g.i.g.g.I *   $.B...(./.$.#.C.a h.s.z.g.g.g.s.f.g.a.a.a.i.i.i.i.i.y.y.y.4.4.3.3.3.3.3.3.",
"3.3.3.3.3.3.4.3.y.4.y.i.p.i.a.a.s.i.a.g.g.g.g.a.k.G + _ -X;XXX&X>XXX~./.a.x.g.l.g.g.g.g.g.s.a.a.i.a.i.i.i.y.y.y.y.4.y.3.3.3.3.3.",
"3.3.3.3.3.4.4.y.y.i.y.i.i.i.a.a.i.f.g.a.g.g.g.z.g.B.i Z.XXXX/.~.(.&XwX!.f.x.z.z.z.g.g.g.f.s.s.a.a.a.i.i.i.y.y.y.y.4.3.3.3.3.3.3.",
"3.3.3.3.4.3.y.y.y.y.i.i.i.a.a.a.g.g.g.g.g.g.z.z.f.M.` L.].].].-X&X0X-XI c.l.z.z.z.z.g.g.g.g.f.s.a.a.i.i.i.y.i.y.y.4.y.3.3.3.3.3.",
"3.3.3.3.y.3.y.y.4.i.i.i.a.a.a.g.g.f.g.g.z.z.z.l.n.D @ K.:X=X/.-X>XqX&X0 n.x.x.z.z.z.z.z.f.g.s.s.g.a.i.i.i.i.i.y.y.3.y.4.3.3.3.3.",
"3.3.3.4.4.y.y.y.i.i.i.i.a.a.a.a.g.g.g.z.z.z.z.z.n.J   $.:X=X_.&X-XqX!.W n.x.x.x.z.z.z.z.z.s.z.s.g.a.s.a.a.i.i.y.y.y.y.4.3.3.3.3.",
"3.3.3.4.4.y.y.y.4.i.p.a.a.a.a.g.g.g.g.z.z.l.n.x.I 3 O 7 [.3X4X-XwX/.~ N.c.x.x.x.x.z.z.z.z.z.g.g.s.s.a.a.i.i.i.y.y.y.y.3.y.4.3.3.",
"3.3.4.4.4.y.y.y.i.i.p.a.a.a.a.g.g.g.z.z.z.b.| #   9 8./ I !.*X;X=X` 8.J v.c.M.x.x.x.z.z.z.g.z.s.f.s.s.a.a.i.i.i.y.y.y.y.3.3.3.3.",
"3.3.4.y.y.y.y.y.y.i.a.a.a.a.g.g.g.z.z.l.m.| .   < 7.U./ v M 9.w.0.q.8.< e.j.{ x.c.x.x.z.z.z.z.g.g.s.s.a.s.i.i.i.i.y.y.y.4.4.3.3.",
"3.3.3.4.y.t.[ y.i.i.i.s.g.a.g.g.g.g.g.x.l.& , 2.5.m w.B v v 7.P.1.b M v P.8.b ~ c.x.x.x.z.z.z.s.g.g.f.a.a.i.i.i.y.y.y.y.4.3.3.3.",
"3.4.4.y.u.y.U p.i.i.i.s.a.g.g.g.z.g.z.n.J + 6.r.6.s >.@.n b / P.` #.I M O / C x @.n.x.x.z.z.z.l.g.g.g.s.a.a.i.i.i.y.y.y.3.y.3.3.",
"3.3.4.4.u.u.U ! s.i.i.s.a.g.g.g.g.z.z.b.5 @ , 1 2.B o.oX+.x B Y F.-...<.@ # C v L c.x.x.x.z.z.z.g.s.a.s.s.a.i.i.i.y.y.y.y.4.4.3.",
"3.3.4.y.y.u.[ F [ s.a.a.g.g.g.g.z.z.x.z.@ X o % & C M X.~.#.c 5.G.&.` <.*   > 2.^ %.x.x.x.x.z.g.g.g.s.a.a.a.a.i.y.y.y.y.4.4.3.3.",
"3.4.3.4.y.y.p.~ T s.a.a.a.g.g.g.z.f.n.S   & & & : o B ( o.-.F ^ #.-.k.B % % , I.T.f.c.x.x.z.z.z.z.g.g.f.a.a.a.i.i.u.y.y.y.3.y.3.",
"3.4.y.y.y.y.u.y.F s.s.a.a.g.g.g.g.m.|   o & & & & . . x +.o.X.&.*.D._ < % & 9 8.U.k.v.x.z.z.z.z.g.g.g.s.a.a.a.i.y.i.y.y.y.3.3.3.",
"3.4.3.y.y.y.y.p.F ~ d.g.g.g.g.f.x.x.+ . & & & & & &   O F G.*.( F.R.D & - o , b 2.~ c.x.x.x.z.z.z.g.f.s.s.s.i.p.i.y.y.y.y.y.4.3.",
"3.4.4.y.4.y.y.i.y.H i.s.s.g.g.g.m.1 o y & & & % & & o   O &.^.F.D.F.- & & X > b <.R x.x.x.x.z.z.z.g.g.s.s.a.a.i.i.i.y.y.y.4.4.3.",
"4.4.4.4.y.y.i.y.s.! L s.g.g.n.f.3 e p y 4 % o & & & o     5 W.D.>.>.* o & X M 8.T.Z.l.x.x.x.z.g.s.g.f.s.a.a.i.i.i.y.y.y.y.3.4.3.",
"3.4.4.y.y.y.i.i.p.p.H i.i.[ S O - P - & % o o & & & +     + D.R.>.F.% O : o N N 0.c.x.x.x.z.z.x.z.s.s.s.a.a.i.i.i.i.y.y.4.y.3.3.",
"3.3.4.4.y.y.y.i.i.s.~ Y N.$.# X - & : X D I o & % & :     O D.E.,.H.4   ; ;   o %.c.x.x.x.z.z.g.g.z.f.s.a.s.a.i.y.y.y.y.y.3.y.3.",
"3.3.4.4.4.i.i.y.y.s.i.M.!.4X]., o & o 4 n.} o & & & :     + D.R.e.R.)   y y   = h.n.c.x.x.x.z.l.g.g.f.a.a.a.i.i.y.y.y.y.4.3.4.3.",
"3.4.4.4.y.4.y.i.p.p.y.V.$.{.!.  . & o } n.l.& & & : # .   & R.D.0.R.&.  y s   ; %.n.z.x.x.s.s.x.z.s.s.s.a.a.i.i.i.y.y.y.4.4.3.3.",
"3.3.4.4.4.i.4.i.i.i.i.M.~.( f.L     i n.z.b.5 o : & & o . - H.R.-.E.>.: & f O = } c.|.b.s.S.x.i.z.s.s.s.a.a.i.i.y.y.y.4.y.4.3.3.",
"3.4.4.4.4.4.i.y.i.i.i.i.@.m { m.Q   Q n.l.n.i X & & + . O e H.D./ R.H.* o 4 . + c.rXJ.x.x.A.%XA.y.g.s.a.a.i.i.i.i.y.y.y.4.4.3.3.",
"3.3.3.4.4.y.y.y.y.i.p.a.s.! Q g.m.] a.z.l.n.S . & & O . O s D.F.=.-.>.;   + ; # OX#XE %.s.] .XuXM.[ s.a.i.i.i.i.y.y.y.3.4.3.3.3.",
"3.3.4.4.y.4.y.y.y.i.i.a.p.s.s.f.s.z.z.g.l.n.I   & & . O o j .._ _ G a % . % , ~.uXfX<X7XtXuXrXnXhX.X{ i.a.i.i.y.y.y.y.y.4.3.3.3.",
"3.3.3.3.4.y.y.y.i.i.i.a.i.s.s.s.s.s.z.z.l.b.I   o & . . o p K h p j e X O . ) 9XyXfXeX9XbXbXvX,X-.( |.| i.i.i.y.p.y.y.4.4.3.3.3.",
"3.3.3.4.4.4.y.y.y.y.i.i.i.s.i.s.s.z.s.z.z.m.Q . O & O O + p k j h j u O   - 9X1X> M M #.6X6XH.#._ ,XnX.Xy.i.i.y.y.y.3.4.3.3.3.3.",
"3.3.3.3.4.4.y.y.y.i.y.i.i.i.a.a.s.f.g.g.s.m.] .   &   o & j r J i f p O   -.lXhXQ.F.rXbX~.G.cXvXyXgXvXnX%.t.i.y.y.y.y.4.3.3.3.3.",
"3.3.3.3.4.4.4.y.y.y.i.y.i.a.a.s.a.s.s.f.s.z.] o   & O : = k y ] K h y .   ;.2XvX6XmXeX}.pX,X5X`.vXrXvXcX$X[ i.y.4.y.3.4.4.3.3.3.",
"3.3.3.3.3.4.4.y.y.y.y.i.i.i.i.a.a.a.s.s.s.j.Q o   :   X e k u } I f y O    X X#X6X<XkXlX%X&.tXvXaXzXfX7XrXA.3.y.y.3.3.3.3.3.3.3.",
"3.3.3.3.3.3.4.3.y.y.y.y.i.i.i.a.a.a.a.s.s.z.W X   +   O y k u a.I p p   ,.bXbXOX9X+X8XpXR.O.OXiXgXdX6XbXuXM.3.y.y.3.3.3.3.3.3.3.",
"3.3.3.3.3.3.3.3.3.4.y.y.y.i.i.i.i.a.a.s.a.z.W X   o   . y k p l.] u y & tXxXbXyXoXkX9XdXjXuXvXcXbX+XhXbXyX| 4.4.4.4.3.3.3.3.3.3.",
"3.3.3.3.3.3.3.3.4.4.y.y.y.y.i.i.i.a.a.a.s.d.L X   o     p k a s.[ p t ) #XmXuXyX#XvXvXvXxXbXbXnXxX^.fXaXyXJ.R 4.4.4.3.3.3.3.3.3.",
"3.3.3.3.3.3.3.3.4.y.4.y.y.y.y.i.i.i.i.i.i.s.| * O & + = f f K j.s.g h h @X1X$XuX6XhXvXnXcXyXcXnXgX+X8X8X1X#X3.3.4.3.3.3.3.3.3.3.",
"3.3.3.3.3.3.3.3.4.4.4.y.y.y.y.y.i.i.i.a.a.i.s.i.g j j j j h J s.s.J d h @XOXmX#X#XyXvXvXvXjXxXbXbX+XQ.iX@XW.] 3.4.3.3.3.3.3.3.3.",
"3.3.3.3.3.3.3.3.3.4.3.y.y.y.y.y.y.y.i.i.i.i.i.d.J j j j j f J d.d.W f f O.yX$X;.8XyX6X8XuXgXyXiX7X6X:. XQ.] 3.3.3.3.3.3.3.3.3.3.",
"3.3.3.3.3.3.3.3.3.3.3.4.y.4.y.y.y.u.y.[ p.i.i.s.W j j j j f D L L L f y o.@X= X.+X#XzXaX8XgXsXsXhXcX^.F $.R t.3.3.3.3.3.3.3.3.3.",
"3.3.3.3.3.3.3.3.3.3.3.4.4.4.4.y.t.u.u.T q q q Z f f j h f k u $ * $ y p u = e 0 $.7XbXbX+XjX6XbXbX X| 4.3.3.3.3.3.5.3.3.3.3.3.3.",
"3.3.3.3.3.3.3.3.3.3.3.3.4.4.4.4.[ t.] q * 1 1 $ t ' l z z  .' 1 3 w h l ' l ' ..A *. X XP @.+.C.$.} 4.4.3.3.3.3.3.R 3.3.3.3.3.3.",
"3.3.3.3.3.3.3.3.3.3.3.3.3.3.3.R T T A 6 6 5 3 1 d ' u u t y u 2 3 2 u u u t e u 3 C 8., 6 6 A 7.1.E t.3.3.3.3.3.3.3.3.3.3.3.3.3.",
"3.3.3.3.3.3.3.3.3.3.3.3.3.3.3.4.u.R E R T 6 2 2 $ * $ $ $ $ $ $ 1 * $ $ $ $ $ $ $ 8 N , 0 6 Z M B E 3.3.3.E 3.3.3.3.3.3.3.3.3.3.",
"3.3.3.3.3.3.3.3.3.3.3.3.3.3.3.3.4.4.3.y.R E T F Z q Z q q Z Z Z A A S Z A T L F F A A F F T T T t.3.3.3.3.3.3.3.3.3.3.3.3.3.3.3.",
"3.3.3.3.3.3.3.3.3.3.3.3.3.3.3.3.3.3.3.3.y.y.4.4.u.u.u.u.p.p.p.y.u.u.y.p.u.u.u.u.u.u.t.t.y.3.3.3.3.R 3.3.3.3.3.3.3.3.R 3.3.3.3.3.",
"R 5.E 3.3.3.3.3.3.3.3.3.3.3.3.3.3.3.3.3.4.3.3.y.[ t.[ 3.y.3.y.t.y.3.y.3.t.3.y.3.3.3.3.3.3.3.3.3.3.3.3.3.3.3.3.3.3.3.t.E 3.3.3.3.",
"3.3.3.3.3.3.3.3.3.3.3.3.3.3.3.3.3.3.3.3.3.3.3.3.t.3.y.t.3.y.3.y.R y.3.y.t.y.4.3.3.3.3.3.3.3.3.3.3.3.3.3.3.3.3.3.3.3.3.5.3.3.3.3.",
"3.3.3.3.3.3.3.3.3.3.3.3.3.3.3.3.3.3.3.3.3.3.3.3.3.3.R 3.3.4.3.y.t.4.3.4.4.3.3.3.3.3.3.3.3.3.3.3.3.3.3.3.3.3.3.3.3.3.3.3.3.3.3.3.",
"3.3.3.3.3.3.3.3.3.3.3.3.3.3.3.3.3.3.3.3.3.3.3.3.3.3.3.3.3.3.3.3.3.3.3.3.3.3.3.3.3.3.3.3.3.3.3.3.3.3.3.3.3.3.3.3.3.3.3.3.3.3.3.3."
};
